<svg width="1440" height="159" viewBox="0 0 1440 159" fill="none" xmlns="http://www.w3.org/2000/svg">
<path fill-rule="evenodd" clip-rule="evenodd" d="M855.155 158.892C855.785 158.892 856.4 158.887 857.001 158.876C857.771 158.886 858.567 158.891 859.39 158.891C872.485 158.891 879.033 156.56 885.58 154.228C891.727 152.039 897.875 149.85 909.442 149.591C910.098 149.608 910.741 149.634 911.371 149.668V149.566C911.503 149.566 911.636 149.565 911.77 149.565C924.865 149.565 931.412 151.897 937.96 154.228C944.507 156.56 951.054 158.891 964.149 158.891C977.244 158.891 983.792 156.56 990.339 154.228C996.886 151.897 1003.43 149.565 1016.53 149.565C1029.62 149.565 1036.17 151.897 1042.72 154.228C1049.27 156.56 1055.81 158.891 1068.91 158.891C1082 158.891 1088.55 156.56 1095.1 154.228C1101.65 151.897 1108.19 149.565 1121.29 149.565C1134.38 149.565 1140.93 151.897 1147.48 154.228C1154.02 156.56 1160.57 158.891 1173.67 158.891C1175.73 158.891 1177.63 158.834 1179.39 158.727V158.838C1180.8 158.873 1182.3 158.892 1183.9 158.892C1196.99 158.892 1203.54 156.561 1210.09 154.229C1216.63 151.898 1223.18 149.567 1236.28 149.567C1249.37 149.567 1255.92 151.898 1262.47 154.229C1269.01 156.561 1275.56 158.892 1288.66 158.892C1301.75 158.892 1308.3 156.561 1314.85 154.229C1321.39 151.898 1327.94 149.567 1341.04 149.567C1354.13 149.567 1360.68 151.898 1367.23 154.229C1373.77 156.561 1380.32 158.892 1393.42 158.892C1406.51 158.892 1413.06 156.561 1419.6 154.229C1426.15 151.898 1432.7 149.567 1445.79 149.567C1458.89 149.567 1465.44 151.898 1471.98 154.23C1478.53 156.561 1485.08 158.892 1498.17 158.892C1511.27 158.892 1517.82 156.561 1524.36 154.229C1530.91 151.898 1537.46 149.567 1550.55 149.567C1551.88 149.567 1553.16 149.602 1554.39 149.668V135.227L1554.39 23.6666L1554.39 0.0557098C1552.98 0.0207375 1551.48 0.00131205 1549.88 0.00131193C1536.79 0.00131098 1530.24 2.33279 1523.69 4.66427C1517.14 6.99574 1510.6 9.32722 1497.5 9.32722C1484.41 9.32722 1477.86 6.99574 1471.31 4.66426C1464.77 2.33278 1458.22 0.0013053 1445.12 0.00130435C1432.03 0.0013034 1425.48 2.33278 1418.93 4.66426C1412.39 6.99574 1405.84 9.32721 1392.74 9.32721C1379.65 9.32721 1373.1 6.99573 1366.55 4.66426C1360.01 2.33278 1353.46 0.00129772 1340.36 0.00129677C1327.27 0.00129582 1320.72 2.33277 1314.17 4.66425C1307.63 6.99573 1301.08 9.32721 1287.98 9.32721C1274.89 9.3272 1268.34 6.99573 1261.8 4.66425C1255.25 2.33277 1248.7 0.00129014 1235.61 0.00128919C1233.54 0.00128904 1231.64 0.0590641 1229.88 0.16552V0.0546415C1228.47 0.0196692 1226.98 0.000243692 1225.37 0.000243576C1212.28 0.000242629 1205.73 2.33172 1199.18 4.6632C1192.64 6.99468 1186.09 9.32615 1173 9.32615C1159.9 9.32615 1153.35 6.99467 1146.81 4.66319C1140.26 2.33172 1133.71 0.000236943 1120.62 0.000235996C1107.52 0.000235048 1100.97 2.33171 1094.43 4.66319C1087.88 6.99467 1081.33 9.32615 1068.24 9.32614C1055.14 9.32614 1048.59 6.99466 1042.05 4.66319C1035.5 2.33171 1028.95 0.000229363 1015.86 0.000228416C1002.76 0.000227468 996.215 2.33171 989.667 4.66318C983.12 6.99466 976.573 9.32614 963.478 9.32614C950.383 9.32614 943.835 6.99466 937.288 4.66318C930.74 2.3317 924.193 0.000221783 911.098 0.000220836C910.468 0.00022079 909.854 0.00561454 909.254 0.0161422C908.483 0.00639485 907.687 0.00125739 906.863 0.00125733C893.768 0.00125638 887.221 2.33273 880.673 4.66421C874.526 6.85331 868.378 9.04241 856.811 9.30161C856.155 9.28461 855.513 9.25893 854.883 9.22509V9.32644C854.75 9.32692 854.617 9.32717 854.484 9.32717C841.389 9.32716 834.841 6.99569 828.294 4.66421C821.747 2.33273 815.199 0.0012507 802.104 0.00124975C789.01 0.0012488 782.462 2.33272 775.915 4.6642C769.367 6.99568 762.82 9.32716 749.725 9.32716C736.63 9.32716 730.083 6.99568 723.535 4.6642C716.988 2.33272 710.44 0.00124312 697.346 0.00124217C684.251 0.00124122 677.703 2.33272 671.156 4.6642C664.608 6.99567 658.061 9.32715 644.966 9.32715C631.871 9.32715 625.324 6.99567 618.776 4.66419C612.229 2.33271 605.682 0.00123554 592.587 0.00123459C591.489 0.00123451 590.437 0.0176307 589.427 0.0490482C588.082 0.0174647 586.659 2.29103e-05 585.141 2.28004e-05C572.046 2.18529e-05 565.499 2.3315 558.951 4.66298C553.112 6.74245 547.272 8.82192 536.787 9.24716C536.648 9.24054 536.509 9.23352 536.371 9.22611V9.26306C535.225 9.30428 534.024 9.32593 532.762 9.32593C519.667 9.32593 513.12 6.99445 506.572 4.66297C500.025 2.33149 493.477 1.61678e-05 480.382 1.52203e-05C467.288 1.42728e-05 460.74 2.33149 454.193 4.66297C447.645 6.99444 441.098 9.32592 428.003 9.32592C414.908 9.32592 408.361 6.99445 401.813 4.66297C395.266 2.33149 388.718 8.58774e-06 375.624 7.64023e-06C362.529 6.69272e-06 355.981 2.33148 349.434 4.66296C342.887 6.99444 336.339 9.32592 323.244 9.32592C310.149 9.32592 303.602 6.99444 297.055 4.66296C291.35 2.63154 285.645 0.600124 275.609 0.110884V0.0552935C274.271 0.0220805 272.854 0.00288946 271.343 0.00104259C271.184 0.000348954 271.025 0 270.865 0C257.769 0 251.222 2.33177 244.675 4.6634C238.129 6.99473 231.583 9.32591 218.492 9.32591C217.156 9.32591 215.879 9.29093 214.649 9.22487V9.24607C204.194 8.81644 198.363 6.74014 192.532 4.66385C185.985 2.33237 179.438 0.000888962 166.343 0.000888015C153.248 0.000887067 146.7 2.33236 140.153 4.66384C133.606 6.99532 127.058 9.3268 113.963 9.3268C100.868 9.3268 94.321 6.99532 87.7736 4.66384C81.2262 2.33236 74.6788 0.000881382 61.5839 0.000880435C48.4891 0.000879487 41.9417 2.33236 35.3942 4.66383C28.8468 6.99531 22.2994 9.32679 9.20454 9.32679C-3.8903 9.32679 -10.4377 6.99531 -16.9852 4.66383C-23.5326 2.33235 -30.08 0.000873802 -43.1749 0.000872855C-56.2705 0.000871907 -62.8179 2.33265 -69.3649 4.66427C-75.9111 6.9956 -82.4569 9.32678 -95.5476 9.32678C-96.884 9.32678 -98.1606 9.2918 -99.3906 9.22575L-99.3906 135.227H-99.3905L-99.3905 158.837C-97.981 158.872 -96.485 158.892 -94.8826 158.892C-81.7878 158.892 -75.2404 156.56 -68.6929 154.229C-62.1455 151.897 -55.5981 149.566 -42.5032 149.566C-29.4084 149.566 -22.861 151.897 -16.3135 154.229C-9.76611 156.56 -3.21869 158.892 9.87616 158.892C22.971 158.892 29.5184 156.56 36.0659 154.229C42.6133 151.897 49.1607 149.566 62.2556 149.566C75.3504 149.566 81.8978 151.897 88.4453 154.229C94.9927 156.56 101.54 158.892 114.635 158.892C127.73 158.892 134.277 156.56 140.825 154.229C147.372 151.897 153.919 149.566 167.014 149.566C180.109 149.566 186.657 151.897 193.204 154.229C198.909 156.26 204.614 158.292 214.649 158.781V158.837C216.008 158.87 217.448 158.89 218.985 158.891C219.121 158.892 219.257 158.892 219.394 158.892C232.489 158.892 239.037 156.56 245.584 154.228C252.13 151.897 258.676 149.566 271.766 149.566C271.864 149.566 271.961 149.566 272.057 149.566C272.224 149.567 272.389 149.568 272.554 149.57C273.607 149.581 274.623 149.614 275.609 149.667V149.646C286.064 150.076 291.895 152.152 297.726 154.228C304.273 156.56 310.821 158.891 323.916 158.891C337.011 158.891 343.558 156.56 350.105 154.228C356.653 151.897 363.2 149.565 376.295 149.565C389.39 149.565 395.937 151.897 402.485 154.228C409.032 156.56 415.58 158.891 428.675 158.891C441.769 158.891 448.317 156.56 454.864 154.228C461.412 151.897 467.959 149.565 481.054 149.565C494.149 149.565 500.696 151.897 507.244 154.228C513.791 156.56 520.339 158.891 533.433 158.891C534.532 158.891 535.584 158.875 536.594 158.843C537.938 158.875 539.361 158.892 540.879 158.892C553.974 158.892 560.521 156.561 567.069 154.229C572.908 152.15 578.748 150.07 589.233 149.645C589.372 149.652 589.511 149.659 589.649 149.666V149.629C590.795 149.588 591.996 149.566 593.258 149.566C606.353 149.566 612.901 151.898 619.448 154.229C625.995 156.561 632.543 158.892 645.638 158.892C658.732 158.892 665.28 156.561 671.827 154.229C678.375 151.898 684.922 149.566 698.017 149.566C711.112 149.566 717.659 151.898 724.207 154.229C730.754 156.561 737.302 158.892 750.396 158.892C763.491 158.892 770.039 156.561 776.586 154.229C783.134 151.898 789.681 149.566 802.776 149.566C815.871 149.566 822.418 151.898 828.966 154.229C835.513 156.561 842.06 158.892 855.155 158.892Z" fill="url(#paint0_linear_164_540)"/>
<defs>
<linearGradient id="paint0_linear_164_540" x1="-99.3906" y1="79.4462" x2="1554.39" y2="79.4462" gradientUnits="userSpaceOnUse">
<stop stop-color="#CEA341"/>
<stop offset="0.497917" stop-color="#E8D16B"/>
<stop offset="1" stop-color="#F0DF78"/>
</linearGradient>
</defs>
</svg>
