<svg width="82" height="431" viewBox="0 0 82 431" fill="none" xmlns="http://www.w3.org/2000/svg">
<path fill-rule="evenodd" clip-rule="evenodd" d="M156.49 68.0634C198.628 62.2846 219.34 -4.46002 261.505 1.19108C301.781 6.5889 315.123 58.7861 338.064 92.3984C362.685 128.473 411.398 162.025 400.058 204.194C388.256 248.081 315.04 239.505 288.578 276.416C257.062 320.375 290.1 406.559 240.162 427.226C193.571 446.507 154.587 379.961 115.463 348.059C87.584 325.326 58.8469 302.536 46.0026 268.908C34.4218 238.588 53.7985 206.073 48.9718 173.977C41.6771 125.47 -23.9849 69.9324 10.9106 35.5576C47.2268 -0.216725 106.012 74.986 156.49 68.0634Z" fill="#E2C49B"/>
</svg>
