<svg width="50" height="51" viewBox="0 0 50 51" fill="none" xmlns="http://www.w3.org/2000/svg">
<path d="M45.1172 5.25134H40.4622V3.88416C40.4622 2.26873 39.1479 0.954468 37.5325 0.954468C35.9171 0.954468 34.6028 2.26873 34.6028 3.88416V5.25134H18.1966V3.88416C18.1966 2.26873 16.8823 0.954468 15.2669 0.954468C13.6515 0.954468 12.3372 2.26873 12.3372 3.88416V5.28748C12.2542 5.26453 12.1672 5.25134 12.0769 5.25134H8.18584C5.49346 5.25134 3.30303 7.44177 3.30303 10.1342V26.7682C3.30303 27.3076 3.74033 27.7448 4.27959 27.7448C4.81885 27.7448 5.25615 27.3076 5.25615 26.7682V15.3099H40.4622C41.0015 15.3099 41.4388 14.8727 41.4388 14.3334C41.4388 13.794 41.0015 13.3568 40.4622 13.3568H5.25615V10.1342C5.25615 8.51873 6.57041 7.20447 8.18584 7.20447H12.0769C12.1672 7.20447 12.2542 7.19119 12.3372 7.16833V8.42517C12.3372 10.0406 13.6515 11.3549 15.2669 11.3549C16.8823 11.3549 18.1966 10.0406 18.1966 8.42517V7.20447H34.6028V8.42517C34.6028 10.0406 35.9171 11.3549 37.5325 11.3549C39.1479 11.3549 40.4622 10.0406 40.4622 8.42517V7.20447H45.1172C46.7326 7.20447 48.0469 8.51873 48.0469 10.1342V47.2429C48.0469 48.2125 47.2581 49.0013 46.2885 49.0013C45.3188 49.0013 44.5301 48.2125 44.5301 47.2429V44.7167C44.5301 44.1773 44.0928 43.7401 43.5535 43.7401H32.194C31.6548 43.7401 31.2175 44.1773 31.2175 44.7167C31.2175 45.256 31.6548 45.6932 32.194 45.6932H42.577V47.2429C42.577 47.8788 42.7379 48.4776 43.0208 49.0013H3.71094C2.7417 49.0013 1.95312 48.2128 1.95312 47.2435V45.6932H23.811C24.3503 45.6932 24.7876 45.256 24.7876 44.7167C24.7876 44.1773 24.3503 43.7401 23.811 43.7401H14.0536C15.7601 42.2705 16.8437 40.0967 16.8437 37.6732C16.8437 33.2577 13.2514 29.6654 8.83584 29.6654C4.42031 29.6654 0.828027 33.2577 0.828027 37.6732C0.828027 40.0967 1.91162 42.2705 3.61807 43.7401H0.976562C0.437305 43.7401 0 44.1773 0 44.7167V47.2435C0 49.2897 1.66475 50.9545 3.71094 50.9545H46.2885C48.335 50.9545 50 49.2895 50 47.2429V10.1342C50 7.44177 47.8096 5.25134 45.1172 5.25134ZM16.2435 8.42517C16.2435 8.96365 15.8054 9.40173 15.2669 9.40173C14.7284 9.40173 14.2903 8.96365 14.2903 8.42517V3.88416C14.2903 3.34568 14.7284 2.90759 15.2669 2.90759C15.8054 2.90759 16.2435 3.34568 16.2435 3.88416V8.42517ZM38.5091 8.42517C38.5091 8.96365 38.071 9.40173 37.5325 9.40173C36.994 9.40173 36.556 8.96365 36.556 8.42517V3.88416C36.556 3.34568 36.994 2.90759 37.5325 2.90759C38.071 2.90759 38.5091 3.34568 38.5091 3.88416V8.42517ZM2.78115 37.6732C2.78115 34.3346 5.49727 31.6185 8.83584 31.6185C12.1744 31.6185 14.8905 34.3346 14.8905 37.6732C14.8905 41.0118 12.1744 43.7279 8.83584 43.7279C5.49727 43.7279 2.78115 41.0118 2.78115 37.6732Z" fill="white"/>
<path d="M45.7333 13.6429C45.5518 13.4613 45.2998 13.3568 45.043 13.3568C44.786 13.3568 44.5342 13.4613 44.3525 13.6429C44.1709 13.8246 44.0664 14.0765 44.0664 14.3334C44.0664 14.5902 44.1708 14.8422 44.3525 15.0238C44.5343 15.2054 44.786 15.3099 45.043 15.3099C45.2998 15.3099 45.5518 15.2054 45.7333 15.0238C45.9149 14.8422 46.0195 14.5902 46.0195 14.3334C46.0195 14.0765 45.915 13.8246 45.7333 13.6429Z" fill="white"/>
<path d="M29.1654 44.0258C28.9839 43.8441 28.7319 43.7406 28.4751 43.7406C28.2183 43.7406 27.9663 43.8441 27.7847 44.0258C27.603 44.2084 27.4985 44.4593 27.4985 44.7162C27.4985 44.974 27.6029 45.225 27.7847 45.4076C27.9663 45.5892 28.2183 45.6927 28.4751 45.6927C28.7319 45.6927 28.9839 45.5892 29.1654 45.4076C29.3471 45.225 29.4517 44.973 29.4517 44.7162C29.4517 44.4593 29.3472 44.2084 29.1654 44.0258Z" fill="white"/>
<path d="M22.0942 30.642C20.048 30.642 18.3833 32.3067 18.3833 34.3529C18.3833 36.3991 20.048 38.0638 22.0942 38.0638C24.1404 38.0638 25.8052 36.3991 25.8052 34.3529C25.8052 32.3067 24.1404 30.642 22.0942 30.642ZM22.0942 36.1107C21.125 36.1107 20.3364 35.3221 20.3364 34.3529C20.3364 33.3837 21.125 32.5951 22.0942 32.5951C23.0635 32.5951 23.8521 33.3837 23.8521 34.3529C23.8521 35.3221 23.0635 36.1107 22.0942 36.1107Z" fill="url(#paint0_linear_1_2361)"/>
<path d="M31.209 30.642C29.1628 30.642 27.498 32.3067 27.498 34.3529C27.498 36.3991 29.1628 38.0638 31.209 38.0638C33.2552 38.0638 34.9199 36.3991 34.9199 34.3529C34.9199 32.3067 33.2552 30.642 31.209 30.642ZM31.209 36.1107C30.2397 36.1107 29.4512 35.3221 29.4512 34.3529C29.4512 33.3837 30.2397 32.5951 31.209 32.5951C32.1782 32.5951 32.9668 33.3837 32.9668 34.3529C32.9668 35.3221 32.1782 36.1107 31.209 36.1107Z" fill="url(#paint1_linear_1_2361)"/>
<path d="M40.3232 30.642C38.2771 30.642 36.6123 32.3067 36.6123 34.3529C36.6123 36.3991 38.2771 38.0638 40.3232 38.0638C42.3694 38.0638 44.0342 36.3991 44.0342 34.3529C44.0342 32.3067 42.3694 30.642 40.3232 30.642ZM40.3232 36.1107C39.354 36.1107 38.5654 35.3221 38.5654 34.3529C38.5654 33.3837 39.354 32.5951 40.3232 32.5951C41.2925 32.5951 42.0811 33.3837 42.0811 34.3529C42.0811 35.3221 41.2925 36.1107 40.3232 36.1107Z" fill="white"/>
<path d="M12.9795 20.4857C10.9333 20.4857 9.26855 22.1505 9.26855 24.1967C9.26855 26.2428 10.9333 27.9076 12.9795 27.9076C15.0257 27.9076 16.6904 26.2428 16.6904 24.1967C16.6904 22.1505 15.0257 20.4857 12.9795 20.4857ZM12.9795 25.9545C12.0103 25.9545 11.2217 25.1659 11.2217 24.1967C11.2217 23.2274 12.0103 22.4388 12.9795 22.4388C13.9487 22.4388 14.7373 23.2274 14.7373 24.1967C14.7373 25.1659 13.9487 25.9545 12.9795 25.9545Z" fill="white"/>
<path d="M31.209 20.4857C29.1628 20.4857 27.498 22.1505 27.498 24.1967C27.498 26.2428 29.1628 27.9076 31.209 27.9076C33.2552 27.9076 34.9199 26.2428 34.9199 24.1967C34.9199 22.1505 33.2552 20.4857 31.209 20.4857ZM31.209 25.9545C30.2397 25.9545 29.4512 25.1659 29.4512 24.1967C29.4512 23.2274 30.2397 22.4388 31.209 22.4388C32.1782 22.4388 32.9668 23.2274 32.9668 24.1967C32.9668 25.1659 32.1782 25.9545 31.209 25.9545Z" fill="white"/>
<path d="M40.3232 20.4857C38.2771 20.4857 36.6123 22.1505 36.6123 24.1967C36.6123 26.2428 38.2771 27.9076 40.3232 27.9076C42.3694 27.9076 44.0342 26.2428 44.0342 24.1967C44.0342 22.1505 42.3694 20.4857 40.3232 20.4857ZM40.3232 25.9545C39.354 25.9545 38.5654 25.1659 38.5654 24.1967C38.5654 23.2274 39.354 22.4388 40.3232 22.4388C41.2925 22.4388 42.0811 23.2274 42.0811 24.1967C42.0811 25.1659 41.2925 25.9545 40.3232 25.9545Z" fill="white"/>
<path d="M22.0942 20.4857C20.048 20.4857 18.3833 22.1505 18.3833 24.1967C18.3833 26.2428 20.048 27.9076 22.0942 27.9076C24.1404 27.9076 25.8052 26.2428 25.8052 24.1967C25.8052 22.1505 24.1404 20.4857 22.0942 20.4857ZM22.0942 25.9545C21.125 25.9545 20.3364 25.1659 20.3364 24.1967C20.3364 23.2274 21.125 22.4388 22.0942 22.4388C23.0635 22.4388 23.8521 23.2274 23.8521 24.1967C23.8521 25.1659 23.0635 25.9545 22.0942 25.9545Z" fill="white"/>
<path d="M12.3154 35.2936C11.934 34.9122 11.3158 34.9122 10.9343 35.2936L7.75398 38.474L6.66716 37.3871C6.28572 37.0058 5.66755 37.0058 5.28601 37.3871C4.90466 37.7685 4.90466 38.3868 5.28601 38.7683L7.06345 40.5455C7.24665 40.7286 7.49499 40.8316 7.75398 40.8316C8.01296 40.8316 8.2613 40.7286 8.44451 40.5455L12.3154 36.6746C12.6968 36.2933 12.6968 35.6749 12.3154 35.2936Z" fill="url(#paint2_linear_1_2361)"/>
<defs>
<linearGradient id="paint0_linear_1_2361" x1="18.3833" y1="34.3529" x2="25.8052" y2="34.3529" gradientUnits="userSpaceOnUse">
<stop stop-color="#CEA341"/>
<stop offset="0.497917" stop-color="#E8D16B"/>
<stop offset="1" stop-color="#F0DF78"/>
</linearGradient>
<linearGradient id="paint1_linear_1_2361" x1="27.498" y1="34.3529" x2="34.9199" y2="34.3529" gradientUnits="userSpaceOnUse">
<stop stop-color="#CEA341"/>
<stop offset="0.497917" stop-color="#E8D16B"/>
<stop offset="1" stop-color="#F0DF78"/>
</linearGradient>
<linearGradient id="paint2_linear_1_2361" x1="5" y1="37.9196" x2="12.6014" y2="37.9196" gradientUnits="userSpaceOnUse">
<stop stop-color="#CEA341"/>
<stop offset="0.497917" stop-color="#E8D16B"/>
<stop offset="1" stop-color="#F0DF78"/>
</linearGradient>
</defs>
</svg>
