<svg width="48" height="48" viewBox="0 0 48 48" fill="none" xmlns="http://www.w3.org/2000/svg">
<rect width="48" height="48" rx="12" fill="#F7EED9"/>
<g clip-path="url(#clip0_50_623)">
<path d="M36.2924 30.0814L32.664 26.453C31.3682 25.1572 29.1652 25.6755 28.6469 27.3601C28.2581 28.5264 26.9623 29.1743 25.796 28.9151C23.2043 28.2672 19.7055 24.898 19.0576 22.1767C18.6688 21.0104 19.4464 19.7145 20.6126 19.3258C22.2972 18.8075 22.8156 16.6045 21.5197 15.3087L17.8913 11.6803C16.8547 10.7732 15.2996 10.7732 14.3925 11.6803L11.9304 14.1424C9.46832 16.7341 12.1896 23.6021 18.2801 29.6926C24.3706 35.7831 31.2386 38.634 33.8303 36.0423L36.2924 33.5802C37.1995 32.5435 37.1995 30.9885 36.2924 30.0814Z" fill="#CEA341"/>
</g>
<defs>
<clipPath id="clip0_50_623">
<rect width="26" height="26" fill="white" transform="translate(11 11)"/>
</clipPath>
</defs>
</svg>
