<svg width="126" height="126" viewBox="0 0 126 126" fill="none" xmlns="http://www.w3.org/2000/svg">
<circle cx="63" cy="63" r="58" fill="#F7EED9"/>
<circle cx="63" cy="63" r="62.5" stroke="#F7EED9"/>
<path d="M58.9499 85.985V96.635C58.9499 96.9488 58.8252 97.2498 58.6033 97.4717C58.3814 97.6936 58.0804 97.8183 57.7666 97.8183H48.2999C47.9861 97.8183 47.6851 97.6936 47.4632 97.4717C47.2413 97.2498 47.1166 96.9488 47.1166 96.635V91.665C47.1153 91.0821 46.9789 90.5075 46.7182 89.9862C46.4574 89.4649 46.0794 89.0111 45.6137 88.6605L31.7569 78.53C31.0219 77.9439 30.5429 77.0955 30.4209 76.1633L28.2081 59.5966C28.1232 58.9012 28.2967 58.1987 28.6957 57.6227C29.0947 57.0468 29.6914 56.6375 30.3724 56.4726C30.7345 56.388 31.1098 56.3756 31.4767 56.4363C31.8436 56.497 32.1949 56.6296 32.5104 56.8264C32.826 57.0232 33.0995 57.2804 33.3154 57.5831C33.5314 57.8859 33.6853 58.2284 33.7686 58.5908L36.3246 69.4408C36.8409 69.0352 37.4785 68.8148 38.1351 68.8148C38.7917 68.8148 39.4292 69.0352 39.9456 69.4408L47.3533 74.6735C47.885 75.0636 48.5112 75.3046 49.1673 75.3717C51.8326 75.5895 54.3184 76.802 56.1308 78.7683C57.9432 80.7346 58.9496 83.3108 58.9499 85.985Z" fill="#FDD7AD"/>
<path d="M66.0498 85.985V96.635C66.0498 96.9488 66.1745 97.2498 66.3964 97.4717C66.6183 97.6936 66.9193 97.8183 67.2331 97.8183H76.6998C77.0136 97.8183 77.3146 97.6936 77.5365 97.4717C77.7585 97.2498 77.8831 96.9488 77.8831 96.635V91.665C77.8844 91.0821 78.0208 90.5075 78.2815 89.9862C78.5423 89.4649 78.9203 89.0111 79.386 88.6605L93.2428 78.53C93.9778 77.9439 94.4568 77.0955 94.5788 76.1633L96.7916 59.5966C96.8766 58.9012 96.703 58.1987 96.304 57.6227C95.905 57.0468 95.3083 56.6375 94.6273 56.4726C94.2652 56.388 93.8899 56.3756 93.523 56.4363C93.1561 56.497 92.8048 56.6296 92.4893 56.8264C92.1738 57.0232 91.9002 57.2804 91.6843 57.5831C91.4684 57.8859 91.3144 58.2284 91.2311 58.5908L88.6751 69.4408C88.1588 69.0352 87.5212 68.8148 86.8646 68.8148C86.2081 68.8148 85.5705 69.0352 85.0541 69.4408L77.6465 74.6735C77.1148 75.0636 76.4885 75.3046 75.8324 75.3717C73.1671 75.5895 70.6813 76.802 68.8689 78.7683C67.0565 80.7346 66.0501 83.3108 66.0498 85.985Z" fill="#FDD7AD"/>
<path d="M44.7002 81.2188C44.4441 81.2188 44.195 81.1358 43.9902 80.9822L35.7411 74.7886C35.3071 74.4636 34.9438 74.0536 34.6734 73.5836C34.4031 73.1137 34.2312 72.5935 34.1685 72.055C34.1057 71.5164 34.1532 70.9707 34.3083 70.4511C34.4633 69.9315 34.7225 69.449 35.0702 69.0329C35.2164 68.8563 35.3784 68.6935 35.5542 68.5465C35.795 68.3446 36.1063 68.2466 36.4194 68.2741C36.7325 68.3016 37.0219 68.4524 37.2239 68.6933C37.4258 68.9341 37.5238 69.2454 37.4963 69.5585C37.4688 69.8716 37.318 70.161 37.0771 70.3629C37.01 70.4194 36.9478 70.4816 36.8913 70.5487C36.7482 70.7181 36.6413 70.9149 36.5771 71.1271C36.5129 71.3393 36.4928 71.5624 36.5181 71.7827C36.5434 72.0029 36.6135 72.2157 36.7241 72.4078C36.8346 72.6 36.9834 72.7675 37.1611 72.9L45.4113 79.0936C45.61 79.2426 45.7568 79.4503 45.8308 79.6874C45.9049 79.9245 45.9025 80.1788 45.8239 80.4144C45.7454 80.6501 45.5947 80.855 45.3932 81.0002C45.1918 81.1454 44.9497 81.2236 44.7013 81.2236L44.7002 81.2188Z" fill="#F9C795"/>
<path d="M80.2998 81.2192C80.0514 81.2192 79.8094 81.1411 79.6079 80.9959C79.4064 80.8507 79.2557 80.6457 79.1772 80.4101C79.0986 80.1745 79.0962 79.9201 79.1703 79.6831C79.2443 79.446 79.3911 79.2383 79.5898 79.0892L87.84 72.8957C88.0176 72.7633 88.1662 72.5961 88.2768 72.4042C88.3873 72.2124 88.4575 71.9999 88.483 71.78C88.5085 71.56 88.4888 71.3371 88.425 71.125C88.3612 70.913 88.2548 70.7162 88.1122 70.5468C88.0549 70.4788 87.9919 70.4159 87.924 70.3586C87.6838 70.1567 87.5336 69.8675 87.5065 69.5548C87.4794 69.2422 87.5777 68.9315 87.7796 68.6913C87.9816 68.451 88.2707 68.3009 88.5834 68.2738C88.8961 68.2467 89.2067 68.345 89.447 68.5469C89.6235 68.6945 89.7859 68.8581 89.9321 69.0356C90.2794 69.4517 90.5383 69.9341 90.6931 70.4534C90.8479 70.9728 90.8954 71.5182 90.8326 72.0565C90.7698 72.5947 90.5981 73.1146 90.328 73.5844C90.0578 74.0542 89.6948 74.464 89.2612 74.789L81.0098 80.9814C80.8051 81.1354 80.556 81.2189 80.2998 81.2192Z" fill="#F9C795"/>
<path d="M82.2735 55.1693C82.9881 56.0211 83.4725 57.0418 83.6806 58.1339C83.8887 59.2261 83.8136 60.3533 83.4624 61.4082C83.1111 62.4631 82.4955 63.4104 81.6742 64.1598C80.853 64.9092 79.8534 65.4357 78.7709 65.6892C78.2399 67.6223 77.0258 69.2973 75.3539 70.4034C73.682 71.5096 71.6656 71.9719 69.6788 71.7046C67.692 71.4373 65.8695 70.4585 64.5494 68.9497C63.2293 67.441 62.5012 65.5047 62.5 63.5C62.4989 65.5047 61.7707 67.441 60.4506 68.9497C59.1305 70.4585 57.308 71.4373 55.3212 71.7046C53.3344 71.9719 51.318 71.5096 49.6461 70.4034C47.9742 69.2973 46.7602 67.6223 46.2292 65.6892C45.1467 65.4357 44.1471 64.9092 43.3258 64.1598C42.5045 63.4104 41.8889 62.4631 41.5377 61.4082C41.1865 60.3533 41.1113 59.2261 41.3194 58.1339C41.5275 57.0418 42.012 56.0211 42.7265 55.1693C41.8004 54.5051 41.0653 53.6089 40.5951 52.5707C40.1249 51.5325 39.936 50.3889 40.0475 49.2547C40.159 48.1205 40.567 47.0355 41.2304 46.1088C41.8938 45.1821 42.7893 44.4462 43.827 43.975C43.6562 43.3987 43.5685 42.801 43.5667 42.2C43.5667 40.6308 44.1901 39.1259 45.2996 38.0163C46.4092 36.9067 47.9142 36.2833 49.4834 36.2833C49.485 34.7588 49.9774 33.2752 50.8876 32.0522C51.7979 30.8292 53.0776 29.9316 54.5375 29.4923C55.9974 29.053 57.56 29.0953 58.994 29.6129C60.428 30.1305 61.6573 31.096 62.5 32.3665C63.3428 31.096 64.5721 30.1305 66.0061 29.6129C67.4401 29.0953 69.0026 29.053 70.4625 29.4923C71.9224 29.9316 73.2022 30.8292 74.1124 32.0522C75.0226 33.2752 75.515 34.7588 75.5167 36.2833C77.0859 36.2833 78.5908 36.9067 79.7004 38.0163C80.81 39.1259 81.4334 40.6308 81.4334 42.2C81.4315 42.801 81.3439 43.3987 81.173 43.975C82.2108 44.4462 83.1063 45.1821 83.7697 46.1088C84.4331 47.0355 84.841 48.1205 84.9525 49.2547C85.064 50.3889 84.8752 51.5325 84.405 52.5707C83.9347 53.6089 83.1996 54.5051 82.2735 55.1693Z" fill="#C18C2C"/>
<path d="M46.2253 66.8759C45.9657 66.8759 45.7132 66.7906 45.5069 66.633C45.3005 66.4754 45.1517 66.2543 45.0834 66.0038C44.7432 64.7493 44.6627 63.4386 44.8467 62.152C44.8922 61.8424 45.0585 61.5634 45.3092 61.3761C45.5599 61.1887 45.8746 61.1083 46.1844 61.1525C46.4942 61.1966 46.7739 61.3616 46.9623 61.6115C47.1508 61.8614 47.2325 62.1757 47.1897 62.4857C47.1417 62.8224 47.1172 63.1621 47.1164 63.5022C47.1157 64.1366 47.2001 64.7682 47.3672 65.3801C47.4499 65.6827 47.4091 66.0057 47.2538 66.2781C47.0985 66.5506 46.8414 66.7503 46.5389 66.8333C46.4367 66.8612 46.3313 66.8756 46.2253 66.8759Z" fill="#E4B053"/>
<path d="M42.7263 56.3555C42.5007 56.3557 42.2797 56.2914 42.0894 56.1701C41.8991 56.0489 41.7475 55.8757 41.6523 55.6712C41.5572 55.4666 41.5225 55.2391 41.5524 55.0154C41.5823 54.7918 41.6755 54.5813 41.821 54.4089C42.4828 53.6221 43.2956 52.9758 44.2114 52.5085C44.3498 52.4378 44.5007 52.395 44.6556 52.3827C44.8105 52.3703 44.9663 52.3886 45.1142 52.4364C45.262 52.4843 45.399 52.5608 45.5173 52.6616C45.6356 52.7624 45.7328 52.8855 45.8036 53.0238C45.8743 53.1622 45.917 53.3132 45.9294 53.4681C45.9418 53.623 45.9235 53.7788 45.8756 53.9267C45.8278 54.0745 45.7513 54.2115 45.6505 54.3298C45.5497 54.448 45.4266 54.5453 45.2882 54.616C44.6533 54.9401 44.09 55.3884 43.6315 55.9342C43.5205 56.0662 43.3819 56.1723 43.2255 56.245C43.0692 56.3178 42.8988 56.3555 42.7263 56.3555Z" fill="#E4B053"/>
<path d="M43.8244 45.1517C43.5541 45.1518 43.292 45.0594 43.0815 44.8898C42.8711 44.7203 42.725 44.4838 42.6676 44.2196C42.6102 43.9555 42.645 43.6797 42.7661 43.4381C42.8872 43.1965 43.0874 43.0036 43.3333 42.8916C44.1216 42.5323 44.965 42.309 45.8278 42.2313C45.9827 42.2174 46.1387 42.2342 46.2871 42.2807C46.4354 42.3272 46.5732 42.4024 46.6925 42.5022C46.8117 42.6019 46.9102 42.7241 46.9823 42.8619C47.0543 42.9997 47.0985 43.1503 47.1123 43.3051C47.1261 43.46 47.1093 43.616 47.0629 43.7644C47.0164 43.9128 46.9411 44.0505 46.8414 44.1698C46.7417 44.2891 46.6195 44.3875 46.4817 44.4596C46.3439 44.5316 46.1933 44.5758 46.0384 44.5896C45.4416 44.6422 44.8581 44.7963 44.3131 45.0452C44.1599 45.1158 43.9931 45.1522 43.8244 45.1517Z" fill="#E4B053"/>
<path d="M51.8498 37.9605C51.6868 37.9611 51.5255 37.9272 51.3765 37.8611C50.7793 37.6006 50.1346 37.4669 49.4831 37.4682C49.1693 37.4682 48.8683 37.3436 48.6464 37.1217C48.4245 36.8997 48.2998 36.5988 48.2998 36.2849C48.2998 35.9711 48.4245 35.6701 48.6464 35.4482C48.8683 35.2263 49.1693 35.1016 49.4831 35.1016C50.4606 35.0994 51.4278 35.3009 52.3231 35.6932C52.5719 35.8022 52.7757 35.9934 52.9002 36.2348C53.0246 36.4763 53.0623 36.7531 53.0068 37.019C52.9513 37.2849 52.806 37.5236 52.5953 37.695C52.3846 37.8664 52.1214 37.9602 51.8498 37.9605Z" fill="#E4B053"/>
<path d="M78.7744 66.8759C78.6688 66.8755 78.5638 66.8611 78.462 66.8333C78.1595 66.7503 77.9024 66.5506 77.7471 66.2781C77.5918 66.0057 77.551 65.6827 77.6337 65.3801C77.8004 64.7681 77.8844 64.1365 77.8833 63.5022C77.8829 63.1621 77.8588 62.8224 77.8112 62.4857C77.7684 62.1757 77.8502 61.8614 78.0386 61.6115C78.227 61.3616 78.5067 61.1966 78.8165 61.1525C79.1264 61.1083 79.441 61.1887 79.6917 61.3761C79.9424 61.5634 80.1087 61.8424 80.1542 62.152C80.3383 63.4386 80.2577 64.7493 79.9175 66.0038C79.8492 66.2545 79.7002 66.4757 79.4936 66.6333C79.287 66.791 79.0343 66.8762 78.7744 66.8759Z" fill="#E4B053"/>
<path d="M82.2735 56.3555C82.1008 56.3557 81.9302 56.3181 81.7736 56.2453C81.617 56.1725 81.4782 56.0663 81.367 55.9342C80.9086 55.3884 80.3452 54.9401 79.7104 54.616C79.4309 54.4732 79.2196 54.2252 79.1229 53.9267C79.0263 53.6281 79.0522 53.3033 79.195 53.0238C79.3378 52.7444 79.5858 52.5331 79.8844 52.4364C80.183 52.3398 80.5077 52.3657 80.7872 52.5085C81.703 52.9758 82.5158 53.6221 83.1775 54.4089C83.3231 54.5813 83.4163 54.7918 83.4461 55.0154C83.476 55.2391 83.4414 55.4666 83.3462 55.6712C83.2511 55.8757 83.0994 56.0489 82.9092 56.1701C82.7189 56.2914 82.4991 56.3557 82.2735 56.3555Z" fill="#E4B053"/>
<path d="M81.1754 45.1517C81.0067 45.1522 80.8399 45.1158 80.6867 45.0452C80.1417 44.7963 79.5582 44.6422 78.9614 44.5896C78.6486 44.5617 78.3598 44.4107 78.1584 44.1698C77.957 43.9289 77.8596 43.6179 77.8875 43.3051C77.9154 42.9924 78.0665 42.7036 78.3074 42.5022C78.5482 42.3008 78.8593 42.2033 79.172 42.2313C80.0348 42.309 80.8782 42.5323 81.6665 42.8916C81.9124 43.0036 82.1126 43.1965 82.2337 43.4381C82.3548 43.6797 82.3896 43.9555 82.3322 44.2196C82.2748 44.4838 82.1288 44.7203 81.9183 44.8898C81.7078 45.0594 81.4457 45.1518 81.1754 45.1517Z" fill="#E4B053"/>
<path d="M73.1497 37.9605C72.8781 37.9602 72.6149 37.8664 72.4042 37.695C72.1935 37.5236 72.0483 37.2849 71.9927 37.019C71.9372 36.7531 71.9749 36.4763 72.0994 36.2348C72.2239 35.9934 72.4276 35.8022 72.6764 35.6932C73.5717 35.3009 74.5389 35.0994 75.5164 35.1016C75.8302 35.1016 76.1312 35.2263 76.3531 35.4482C76.575 35.6701 76.6997 35.9711 76.6997 36.2849C76.6997 36.5988 76.575 36.8997 76.3531 37.1217C76.1312 37.3436 75.8302 37.4682 75.5164 37.4682C74.8649 37.4669 74.2202 37.6006 73.6231 37.8611C73.474 37.9272 73.3127 37.9611 73.1497 37.9605Z" fill="#E4B053"/>
<path d="M62.5001 58.7648C68.3819 58.7648 73.1501 53.9967 73.1501 48.1148C73.1501 42.233 68.3819 37.4648 62.5001 37.4648C56.6183 37.4648 51.8501 42.233 51.8501 48.1148C51.8501 53.9967 56.6183 58.7648 62.5001 58.7648Z" fill="#ECF0F1"/>
<path d="M68.4168 46.9326V49.2992C68.4168 49.6131 68.2922 49.914 68.0702 50.136C67.8483 50.3579 67.5473 50.4826 67.2335 50.4826H64.8668V52.8492C64.8668 53.1631 64.7422 53.464 64.5202 53.686C64.2983 53.9079 63.9973 54.0326 63.6835 54.0326H61.3168C61.003 54.0326 60.702 53.9079 60.4801 53.686C60.2582 53.464 60.1335 53.1631 60.1335 52.8492V50.4826H57.7668C57.453 50.4826 57.152 50.3579 56.9301 50.136C56.7082 49.914 56.5835 49.6131 56.5835 49.2992V46.9326C56.5835 46.6187 56.7082 46.3177 56.9301 46.0958C57.152 45.8739 57.453 45.7492 57.7668 45.7492H60.1335V43.3826C60.1335 43.0687 60.2582 42.7677 60.4801 42.5458C60.702 42.3239 61.003 42.1992 61.3168 42.1992H63.6835C63.9973 42.1992 64.2983 42.3239 64.5202 42.5458C64.7422 42.7677 64.8668 43.0687 64.8668 43.3826V45.7492H67.2335C67.5473 45.7492 67.8483 45.8739 68.0702 46.0958C68.2922 46.3177 68.4168 46.6187 68.4168 46.9326Z" fill="#C18C2C"/>
</svg>
