<svg width="14" height="14" viewBox="0 0 14 14" fill="none" xmlns="http://www.w3.org/2000/svg">
<path d="M0.31938 0.31938C0.745221 -0.10646 1.43542 -0.10646 1.86104 0.31938L7 5.45834L12.139 0.31938C12.5648 -0.10646 13.255 -0.10646 13.6806 0.31938C14.1065 0.745221 14.1065 1.43542 13.6806 1.86104L8.54166 7L13.6806 12.139C14.1065 12.5648 14.1065 13.255 13.6806 13.6806C13.2548 14.1065 12.5646 14.1062 12.139 13.6806L7 8.54166L1.86104 13.6806C1.4352 14.1062 0.744994 14.1062 0.31938 13.6806C-0.10646 13.2548 -0.10646 12.5646 0.31938 12.139L5.45834 7L0.31938 1.86104C-0.10646 1.4352 -0.10646 0.744994 0.31938 0.31938Z" fill="#F0EBE1"/>
</svg>
