<svg width="48" height="48" viewBox="0 0 48 48" fill="none" xmlns="http://www.w3.org/2000/svg">
<rect width="48" height="48" rx="12" fill="#F7EED9"/>
<g clip-path="url(#clip0_113_168)">
<path d="M24 29.7425C28.3748 29.7425 33.0234 28.3054 33.0234 25.6409V21.6047L24.8643 24.6644C24.5823 24.7685 24.2931 24.8206 24 24.8206C23.7069 24.8206 23.4177 24.7685 23.1412 24.6659L14.9219 21.6045V25.6409C14.9219 28.3054 19.6252 29.7425 24 29.7425Z" fill="black"/>
<path d="M37.4749 16.6664L24.2952 11.7445C24.0985 11.6789 23.9015 11.6789 23.7048 11.7445L10.656 16.6172H24C24.4531 16.6172 24.8203 16.9845 24.8203 17.4376C24.8203 17.8906 24.4531 18.2579 24 18.2579H10V35.4844C10 35.9379 10.367 36.3047 10.8203 36.3047C11.236 36.3047 11.5789 35.9956 11.6334 35.5949L11.6831 35.744C11.8256 36.1714 12.2881 36.4064 12.7205 36.2622C13.1499 36.1197 13.3823 35.6551 13.2387 35.2249L11.6406 30.4303V18.6351L23.7048 23.1306C23.803 23.1635 23.9015 23.1797 24 23.1797C24.0985 23.1797 24.197 23.1635 24.2952 23.1306L37.4749 18.2087C37.7868 18.0938 38 17.7821 38 17.4376C38 17.093 37.7868 16.7813 37.4749 16.6664Z" fill="#C18C2C"/>
</g>
<defs>
<clipPath id="clip0_113_168">
<rect width="28" height="28" fill="white" transform="translate(10 10)"/>
</clipPath>
</defs>
</svg>
