<svg width="126" height="126" viewBox="0 0 126 126" fill="none" xmlns="http://www.w3.org/2000/svg">
<circle cx="63" cy="63" r="58" fill="#F7EED9"/>
<g clip-path="url(#clip0_14_153)">
<mask id="mask0_14_153" style="mask-type:luminance" maskUnits="userSpaceOnUse" x="28" y="27" width="71" height="71">
<path d="M28 27H99V98H28V27Z" fill="white"/>
</mask>
<g mask="url(#mask0_14_153)">
<path d="M64.0278 92.3134C47.8796 92.3134 34.7421 79.176 34.7421 63.0277C34.7421 46.8795 47.8796 33.742 64.0278 33.742C80.176 33.742 93.3135 46.8795 93.3135 63.0277C93.3135 79.176 80.176 92.3134 64.0278 92.3134ZM64.0278 28.0555C44.7131 28.0555 29.0555 43.713 29.0555 63.0277C29.0555 82.3424 44.7131 98 64.0278 98C83.3424 98 99 82.3424 99 63.0277C99 43.713 83.3424 28.0555 64.0278 28.0555Z" fill="#C18C2C"/>
<path d="M64.0278 92.3134C47.8796 92.3134 34.7421 79.176 34.7421 63.0277C34.7421 46.8795 47.8796 33.742 64.0278 33.742C80.176 33.742 93.3135 46.8795 93.3135 63.0277C93.3135 79.176 80.176 92.3134 64.0278 92.3134ZM64.0278 28.0555C44.7131 28.0555 29.0555 43.713 29.0555 63.0277C29.0555 82.3424 44.7131 98 64.0278 98C83.3424 98 99 82.3424 99 63.0277C99 43.713 83.3424 28.0555 64.0278 28.0555Z" fill="#C18C2C"/>
<path d="M69.5468 78.5977L79.5993 68.5452L71.0652 60.0111C71.0652 60.0111 63.4252 67.6509 61.0127 70.0634L69.5468 78.5977Z" fill="#E4F6FF"/>
<path opacity="0.5" d="M76.9857 71.1603L79.5994 68.5467L71.0652 60.0125C71.0652 60.0125 69.9567 61.1209 68.4515 62.6262L76.9857 71.1603Z" fill="#EBD56F"/>
<path d="M67.0444 55.9907L55.4726 44.4189C54.3623 43.3086 52.5619 43.3084 51.4517 44.4189L45.4202 50.4503C44.3098 51.5608 44.3098 53.3609 45.4202 54.4714L56.9919 66.043C59.4045 63.6305 67.0444 55.9907 67.0444 55.9907Z" fill="url(#paint0_linear_14_153)"/>
<path d="M44.5874 44.6445C44.3174 44.6445 44.0471 44.5415 43.841 44.3354L28.3091 28.8036C27.897 28.3912 27.897 27.7231 28.3091 27.3107C28.7214 26.8987 29.3896 26.8987 29.8019 27.3107L45.3338 42.8426C45.746 43.2549 45.746 43.9232 45.3338 44.3354C45.1276 44.5415 44.8575 44.6445 44.5874 44.6445Z" fill="#CBE2FF"/>
<path d="M44.0163 41.8021L42.8032 43.0153C42.5142 43.3042 42.4737 43.7585 42.707 44.0941L46.4255 49.4453L50.4465 45.4244L45.0952 41.7058C44.7596 41.4725 44.3053 41.5132 44.0163 41.8021Z" fill="black"/>
<path d="M91.8634 82.8213L81.8109 72.7688L73.7689 80.8108L83.8214 90.8633L91.8634 82.8213Z" fill="#CBE2FF"/>
<path d="M85.0359 67.9535L83.4112 66.3289C82.9716 65.8893 82.2589 65.8893 81.8191 66.3289L67.3274 80.8206C66.8876 81.2604 66.8876 81.9733 67.3274 82.413L68.9519 84.0374C69.3916 84.4771 70.1044 84.4771 70.5441 84.0374L85.0359 69.5456C85.4756 69.1062 85.4756 68.3933 85.0359 67.9535Z" fill="#DFEDFF"/>
<path d="M85.0358 67.9535L83.4111 66.3288C82.9715 65.8892 82.2588 65.8892 81.819 66.3288L80.0015 68.1465L83.2182 71.3633L85.0358 69.5456C85.4755 69.1061 85.4755 68.3932 85.0358 67.9535Z" fill="#CBE2FF"/>
<path d="M98.2045 81.1214L96.5799 79.4968C96.1402 79.0571 95.4274 79.0571 94.9877 79.4968L80.496 93.9886C80.0564 94.4283 80.0564 95.1412 80.496 95.5808L82.1206 97.2054C82.5604 97.6451 83.2731 97.6451 83.7127 97.2054L98.2045 82.7136C98.6442 82.274 98.6442 81.5611 98.2045 81.1214Z" fill="#DFEDFF"/>
<path d="M43.5054 87.5703L39.4844 83.5493L84.5502 38.4834L88.5712 42.5045L43.5054 87.5703Z" fill="#C18C2C"/>
<path d="M56.6676 45.6133L54.6571 47.6239C54.2448 48.0362 54.2448 48.7044 54.6571 49.1167C54.8632 49.3228 55.1334 49.4258 55.4034 49.4258C55.6736 49.4258 55.9437 49.3228 56.1499 49.1167L58.1605 47.1062L56.6676 45.6133Z" fill="black"/>
<path d="M59.8851 48.832L57.8746 50.8426C57.4624 51.2549 57.4624 51.9232 57.8746 52.3354C58.0807 52.5415 58.351 52.6445 58.621 52.6445C58.8911 52.6445 59.1612 52.5415 59.3674 52.3354L61.378 50.325L59.8851 48.832Z" fill="black"/>
<path d="M63.1019 52.0508L61.0914 54.0614C60.6792 54.4737 60.6792 55.1419 61.0914 55.5542C61.2975 55.7603 61.5678 55.8633 61.8378 55.8633C62.1079 55.8633 62.378 55.7603 62.5842 55.5542L64.5948 53.5437L63.1019 52.0508Z" fill="black"/>
<path d="M87.0064 87.4766L77.0544 77.5245L78.5255 76.0536L88.4773 86.0057L87.0064 87.4766Z" fill="#FAF4E6"/>
</g>
</g>
<circle cx="63" cy="63" r="62.5" stroke="#F7EED9"/>
<defs>
<linearGradient id="paint0_linear_14_153" x1="44.5874" y1="54.8145" x2="67.0444" y2="54.8145" gradientUnits="userSpaceOnUse">
<stop stop-color="#CEA341"/>
<stop offset="0.5052" stop-color="#E8D16B"/>
<stop offset="1" stop-color="#F0DF78"/>
</linearGradient>
<clipPath id="clip0_14_153">
<rect width="71" height="71" fill="white" transform="translate(28 27)"/>
</clipPath>
</defs>
</svg>
