<svg width="51" height="51" viewBox="0 0 51 51" fill="none" xmlns="http://www.w3.org/2000/svg">
<path d="M3.83333 25.7896C3.83333 13.8234 13.5338 4.12288 25.5 4.12288C26.4205 4.12288 27.1667 3.37669 27.1667 2.45622C27.1667 1.53574 26.4205 0.789551 25.5 0.789551C11.6929 0.789551 0.5 11.9825 0.5 25.7896C0.5 39.5966 11.6929 50.7896 25.5 50.7896C39.3071 50.7896 50.5 39.5966 50.5 25.7896C50.5 24.8691 49.7538 24.1229 48.8333 24.1229C47.9128 24.1229 47.1667 24.8691 47.1667 25.7896C47.1667 37.7557 37.4662 47.4562 25.5 47.4562C13.5338 47.4562 3.83333 37.7557 3.83333 25.7896Z" fill="black"/>
<path d="M13.0003 25.7889C13.0003 18.8853 18.5967 13.2889 25.5003 13.2889C26.4208 13.2889 27.167 12.5427 27.167 11.6222C27.167 10.7017 26.4208 9.95557 25.5003 9.95557C16.7558 9.95557 9.66699 17.0444 9.66699 25.7889C9.66699 34.5334 16.7558 41.6222 25.5003 41.6222C34.2448 41.6222 41.3337 34.5334 41.3337 25.7889C41.3337 24.8684 40.5875 24.1222 39.667 24.1222C38.7465 24.1222 38.0003 24.8684 38.0003 25.7889C38.0003 32.6925 32.4039 38.2889 25.5003 38.2889C18.5967 38.2889 13.0003 32.6925 13.0003 25.7889Z" fill="black"/>
<path d="M42.1605 1.9292C41.9779 1.38122 41.5245 0.966884 40.9623 0.834167C40.4001 0.701459 39.8094 0.869292 39.4009 1.27774L30.1152 10.5635C29.6688 11.0098 29.5129 11.6701 29.7125 12.269L31.4503 17.4823L25.9882 22.9444C25.3373 23.5953 25.3373 24.6505 25.9882 25.3015C26.639 25.9523 27.6944 25.9523 28.3452 25.3015L33.8074 19.8393L39.0206 21.577C39.6195 21.7767 40.2798 21.6208 40.7262 21.1745L50.0119 11.8887C50.4204 11.4803 50.5882 10.8895 50.4554 10.3273C50.3227 9.76513 49.9084 9.31172 49.3604 9.12905L43.9605 7.32911L42.1605 1.9292Z" fill="#DAA520"/>
</svg>
