<svg width="172" height="431" viewBox="0 0 172 431" fill="none" xmlns="http://www.w3.org/2000/svg">
<path fill-rule="evenodd" clip-rule="evenodd" d="M147.992 160.177C177.363 118.702 136.059 46.1288 175.422 13.9646C213.021 -16.758 269.447 14.2309 317.5 21.6698C369.073 29.6535 438.12 14.5631 465.642 58.8921C494.285 105.027 427.013 161.887 437.599 215.111C450.206 278.501 552.361 320.064 529.606 380.501C508.376 436.887 418.494 416.546 358.717 424.62C316.121 430.373 272.773 436.827 232.952 420.569C197.048 405.91 184.51 362.455 152.572 340.455C104.305 307.204 2.23847 319.124 0.751879 260.614C-0.795235 199.722 112.808 209.86 147.992 160.177Z" fill="#E2C49B"/>
</svg>
