<svg width="543" height="944" viewBox="0 0 543 944" fill="none" xmlns="http://www.w3.org/2000/svg">
<path fill-rule="evenodd" clip-rule="evenodd" d="M403.433 206.896C486.543 100.784 386.408 -96.7493 494.797 -176.92C598.328 -253.497 743.839 -164.189 870.184 -138.338C1005.78 -110.592 1190.62 -141.737 1257.86 -20.7866C1327.84 105.09 1142.36 247.113 1163.59 389.461C1188.88 558.995 1454.18 682.165 1386.17 839.356C1322.72 986.009 1087.22 920.63 927.834 934.373C814.259 944.165 698.604 955.72 595.193 907.557C501.956 864.133 474.301 747.416 392.51 685.049C268.898 590.795 -3.00605 609.317 0.539016 454.13C4.2284 292.625 303.872 334.011 403.433 206.896Z" fill="#E2C49B"/>
</svg>
