<svg width="30" height="30" viewBox="0 0 30 30" fill="none" xmlns="http://www.w3.org/2000/svg">
<g id="medical 1">
<g id="_x32_5_Medical">
<g id="Group">
<path id="Vector" d="M14.2387 27.2567C21.0087 27.2567 26.4969 21.7685 26.4969 14.9985C26.4969 8.22843 21.0087 2.74023 14.2387 2.74023C7.46866 2.74023 1.98047 8.22843 1.98047 14.9985C1.98047 21.7685 7.46866 27.2567 14.2387 27.2567Z" fill="#FFF9F1"/>
<path id="Vector_2" d="M20.6077 12.6666H16.572V8.63086H11.9068V12.6666H7.87109V17.3317H11.9068V21.3675H16.572V17.3317H20.6077V12.6666Z" fill="#C18C2C"/>
<g id="Group_2">
<path id="Vector_3" d="M15.7579 2.3457C15.6816 2.3457 16.1557 2.3457 14.2396 2.3457C7.26244 2.3457 1.58594 8.02203 1.58594 14.9993C1.58594 21.9766 7.26244 27.6529 14.2396 27.6529H15.7579C22.7351 27.6529 28.4116 21.9766 28.4116 14.9993C28.4116 8.02203 22.7351 2.3457 15.7579 2.3457ZM2.37678 14.9993C2.37678 8.4582 7.69844 3.13654 14.2396 3.13654C20.7053 3.13654 26.1023 8.38684 26.1023 14.9993C26.1023 21.5104 20.8039 26.8621 14.2396 26.8621C7.69844 26.8621 2.37678 21.5404 2.37678 14.9993Z" fill="#C18C2C"/>
<path id="Vector_4" d="M16.9684 21.3685V17.7282H20.6087C20.8273 17.7282 21.0042 17.5511 21.0042 17.3327V12.6675C21.0042 12.4492 20.8273 12.2721 20.6087 12.2721H16.9684V8.63178C16.9684 8.4134 16.7916 8.23633 16.5729 8.23633H11.9078C11.6892 8.23633 11.5123 8.4134 11.5123 8.63178V12.2721H7.87201C7.65346 12.2721 7.47656 12.4492 7.47656 12.6675V17.3327C7.47656 17.5511 7.6534 17.7282 7.87201 17.7282H11.5123V21.3685C11.5123 21.5869 11.6892 21.7639 11.9078 21.7639H16.5729C16.7916 21.7639 16.9684 21.5869 16.9684 21.3685ZM16.1776 17.3328V20.9731H12.3032V17.3328C12.3032 17.1144 12.1264 16.9373 11.9078 16.9373H8.26746V13.063H11.9078C12.1263 13.063 12.3032 12.8859 12.3032 12.6675V9.02723H16.1776V12.6675C16.1776 12.8859 16.3544 13.063 16.573 13.063H20.2133V16.9373H16.573C16.3544 16.9373 16.1776 17.1144 16.1776 17.3328Z" fill="#C18C2C"/>
</g>
</g>
</g>
</g>
</svg>
