<svg width="28" height="26" viewBox="0 0 28 26" fill="none" xmlns="http://www.w3.org/2000/svg">
<path d="M13.2387 25.2567C20.0087 25.2567 25.4969 19.7685 25.4969 12.9985C25.4969 6.22843 20.0087 0.740234 13.2387 0.740234C6.46866 0.740234 0.980469 6.22843 0.980469 12.9985C0.980469 19.7685 6.46866 25.2567 13.2387 25.2567Z" fill="#F7EED9"/>
<path d="M19.6077 10.6666H15.572V6.63086H10.9068V10.6666H6.87109V15.3317H10.9068V19.3675H15.572V15.3317H19.6077V10.6666Z" fill="black"/>
<path d="M14.7579 0.345703C14.6816 0.345703 15.1557 0.345703 13.2395 0.345703C6.26244 0.345703 0.585938 6.02203 0.585938 12.9993C0.585938 19.9766 6.26244 25.6529 13.2395 25.6529H14.7579C21.7351 25.6529 27.4116 19.9766 27.4116 12.9993C27.4116 6.02203 21.7351 0.345703 14.7579 0.345703ZM1.37678 12.9993C1.37678 6.4582 6.69844 1.13654 13.2395 1.13654C19.7053 1.13654 25.1023 6.38684 25.1023 12.9993C25.1023 19.5104 19.8039 24.8621 13.2395 24.8621C6.69844 24.8621 1.37678 19.5404 1.37678 12.9993Z" fill="black"/>
<path d="M15.9684 19.3685V15.7282H19.6087C19.8273 15.7282 20.0042 15.5511 20.0042 15.3327V10.6675C20.0042 10.4492 19.8273 10.2721 19.6087 10.2721H15.9684V6.63178C15.9684 6.4134 15.7916 6.23633 15.5729 6.23633H10.9078C10.6892 6.23633 10.5123 6.4134 10.5123 6.63178V10.2721H6.87201C6.65346 10.2721 6.47656 10.4492 6.47656 10.6675V15.3327C6.47656 15.5511 6.6534 15.7282 6.87201 15.7282H10.5123V19.3685C10.5123 19.5869 10.6892 19.7639 10.9078 19.7639H15.5729C15.7916 19.7639 15.9684 19.5869 15.9684 19.3685ZM15.1776 15.3328V18.9731H11.3032V15.3328C11.3032 15.1144 11.1264 14.9373 10.9078 14.9373H7.26746V11.063H10.9078C11.1263 11.063 11.3032 10.8859 11.3032 10.6675V7.02723H15.1776V10.6675C15.1776 10.8859 15.3544 11.063 15.573 11.063H19.2133V14.9373H15.573C15.3544 14.9373 15.1776 15.1144 15.1776 15.3328Z" fill="black"/>
</svg>
