<svg width="24" height="24" viewBox="0 0 24 24" fill="none" xmlns="http://www.w3.org/2000/svg">
<path d="M11.3926 21.8066C16.8087 21.8066 21.1992 17.4161 21.1992 12.0001C21.1992 6.58404 16.8087 2.19348 11.3926 2.19348C5.97661 2.19348 1.58606 6.58404 1.58606 12.0001C1.58606 17.4161 5.97661 21.8066 11.3926 21.8066Z" fill="#FFF9F1"/>
<path d="M16.4864 10.134H13.2578V6.9054H9.52568V10.134H6.29712V13.8661H9.52568V17.0947H13.2578V13.8661H16.4864V10.134Z" fill="#DAA520"/>
<path d="M12.6074 1.87708C12.5463 1.87708 12.9256 1.87708 11.3927 1.87708C5.81098 1.87708 1.26978 6.41814 1.26978 12C1.26978 17.5818 5.81098 22.1229 11.3927 22.1229H12.6074C18.1891 22.1229 22.7303 17.5818 22.7303 12C22.7303 6.41814 18.1891 1.87708 12.6074 1.87708ZM1.90245 12C1.90245 6.76708 6.15978 2.50975 11.3927 2.50975C16.5653 2.50975 20.8829 6.70998 20.8829 12C20.8829 17.2089 16.6442 21.4902 11.3927 21.4902C6.15978 21.4902 1.90245 17.2329 1.90245 12Z" fill="#DAA520"/>
<path d="M13.5742 17.0947V14.1825H16.4864C16.6613 14.1825 16.8028 14.0408 16.8028 13.8661V10.134C16.8028 9.95926 16.6613 9.8176 16.4864 9.8176H13.5742V6.90535C13.5742 6.73065 13.4327 6.58899 13.2578 6.58899H9.52568C9.35084 6.58899 9.20932 6.73065 9.20932 6.90535V9.8176H6.29707C6.12223 9.8176 5.98071 9.95926 5.98071 10.134V13.8661C5.98071 14.0408 6.12218 14.1825 6.29707 14.1825H9.20932V17.0947C9.20932 17.2694 9.35079 17.4111 9.52568 17.4111H13.2578C13.4327 17.4111 13.5742 17.2694 13.5742 17.0947ZM12.9415 13.8661V16.7784H9.84204V13.8661C9.84204 13.6914 9.70057 13.5498 9.52568 13.5498H6.61343V10.4503H9.52568C9.70053 10.4503 9.84204 10.3087 9.84204 10.134V7.22171H12.9415V10.134C12.9415 10.3087 13.083 10.4503 13.2579 10.4503H16.1701V13.5498H13.2579C13.083 13.5498 12.9415 13.6914 12.9415 13.8661Z" fill="#DAA520"/>
</svg>
