<svg width="50" height="51" viewBox="0 0 50 51" fill="none" xmlns="http://www.w3.org/2000/svg">
<g clip-path="url(#clip0_0_64)">
<path d="M46.9227 24.4351C46.1982 13.4842 37.4157 4.70166 26.4648 3.97725V0.899902H23.5352V3.97725C12.5843 4.70166 3.80176 13.4842 3.07734 24.4351H0V27.3647H3.07734C3.80176 38.3156 12.5843 47.0981 23.5352 47.8226V50.8999H26.4648V47.8226C37.4157 47.0981 46.1982 38.3156 46.9227 27.3647H50V24.4351H46.9227ZM23.5352 6.9127V12.7981C17.4337 13.4758 12.5759 18.3336 11.8982 24.4351H6.01279C6.72627 15.1 14.2001 7.62617 23.5352 6.9127ZM23.5352 44.8871C14.2001 44.1736 6.72627 36.6998 6.01279 27.3647H11.8982C12.5759 33.4662 17.4337 38.324 23.5352 39.0017V44.8871ZM23.5352 33.2241V36.0487C19.0512 35.4045 15.4954 31.8487 14.8512 27.3647H17.6758V24.4351H14.8512C15.4954 19.9511 19.0512 16.3953 23.5352 15.7511V18.5757H26.4648V15.7511C30.9488 16.3953 34.5046 19.9511 35.1488 24.4351H32.3242V27.3647H35.1488C34.5046 31.8487 30.9488 35.4045 26.4648 36.0487V33.2241H23.5352ZM26.4648 44.8871V39.0017C32.5663 38.324 37.4241 33.4661 38.1018 27.3647H43.9872C43.2737 36.6998 35.7999 44.1736 26.4648 44.8871ZM38.1018 24.4351C37.4241 18.3336 32.5663 13.4758 26.4648 12.7981V6.9127C35.7999 7.62617 43.2737 15.1 43.9872 24.4351H38.1018Z" fill="black"/>
<path d="M25 21.5054C22.5769 21.5054 20.6055 23.4768 20.6055 25.8999C20.6055 28.323 22.5769 30.2944 25 30.2944C27.4231 30.2944 29.3945 28.323 29.3945 25.8999C29.3945 23.4768 27.4231 21.5054 25 21.5054Z" fill="#DAA520"/>
</g>
<defs>
<clipPath id="clip0_0_64">
<rect width="50" height="50" fill="white" transform="translate(0 0.899902)"/>
</clipPath>
</defs>
</svg>
