<svg width="51" height="44" viewBox="0 0 51 44" fill="none" xmlns="http://www.w3.org/2000/svg">
<path d="M23.2884 0.379994V2.62C18.3884 5.13999 14.4684 8.64 11.3884 13.12C8.30844 17.46 6.62844 21.8 6.20844 25.86H6.90844C8.02844 22.64 10.2684 21.1 13.7684 21.1C18.1084 21.1 23.0084 25.44 23.0084 32.16C23.0084 38.46 18.3884 43.08 12.0884 43.08C4.38844 43.08 0.468438 37.34 0.468438 29.92C0.468438 20.4 6.48844 8.77999 23.2884 0.379994ZM50.5884 0.379994V2.62C45.6884 5.13999 41.7684 8.64 38.6884 13.12C35.6084 17.46 33.9284 21.8 33.5084 25.86H34.2084C35.3284 22.64 37.5684 21.1 41.0684 21.1C45.4084 21.1 50.3084 25.44 50.3084 32.16C50.3084 38.46 45.6884 43.08 39.3884 43.08C31.6884 43.08 27.7684 37.34 27.7684 29.92C27.7684 20.4 33.7884 8.77999 50.5884 0.379994Z" fill="#1B1B1B"/>
</svg>
