<svg width="36" height="32" viewBox="0 0 36 32" fill="none" xmlns="http://www.w3.org/2000/svg">
<path d="M16.4193 0.699752V2.29976C12.9193 4.09975 10.1193 6.59975 7.91934 9.79975C5.71934 12.8998 4.51934 15.9998 4.21934 18.8998H4.71934C5.51934 16.5998 7.11934 15.4998 9.61934 15.4998C12.7193 15.4998 16.2193 18.5998 16.2193 23.3998C16.2193 27.8998 12.9193 31.1998 8.41934 31.1998C2.91934 31.1998 0.119336 27.0998 0.119336 21.7998C0.119336 14.9998 4.41934 6.69975 16.4193 0.699752ZM35.9193 0.699752V2.29976C32.4193 4.09975 29.6193 6.59975 27.4193 9.79975C25.2193 12.8998 24.0193 15.9998 23.7193 18.8998H24.2193C25.0193 16.5998 26.6193 15.4998 29.1193 15.4998C32.2193 15.4998 35.7193 18.5998 35.7193 23.3998C35.7193 27.8998 32.4193 31.1998 27.9193 31.1998C22.4193 31.1998 19.6193 27.0998 19.6193 21.7998C19.6193 14.9998 23.9193 6.69975 35.9193 0.699752Z" fill="#C18C2C"/>
</svg>
