<svg width="51" height="320" viewBox="0 0 51 320" fill="none" xmlns="http://www.w3.org/2000/svg">
<path fill-rule="evenodd" clip-rule="evenodd" d="M139.28 72.4715C166.746 83.8856 202.844 50.941 226.285 69.2606C248.676 86.7592 238.268 122.969 240.223 151.36C242.321 181.831 259.846 219.3 238.093 240.732C215.453 263.036 174.313 231.972 145.296 244.884C110.737 260.262 100.194 323.941 62.7562 318.751C27.8286 313.909 27.8405 259.974 15.5169 226.892C6.73539 203.319 -2.54337 179.407 1.59862 154.576C5.33314 132.188 28.5212 119.423 36.9587 98.3521C49.7104 66.5071 29.7337 9.78066 62.9425 1.38096C97.5033 -7.36069 106.377 58.7982 139.28 72.4715Z" fill="#E2C49B"/>
</svg>
