<svg width="375" height="231" viewBox="0 0 375 231" fill="none" xmlns="http://www.w3.org/2000/svg">
<path d="M0 0L3.26915e-05 230.907C1.40958 230.967 2.90557 231 4.50793 231C30.6976 231 30.6976 215.069 56.8873 215.069C83.077 215.069 83.077 231 109.267 231C135.456 231 135.456 215.069 161.646 215.069C187.836 215.069 187.836 231 214.025 231C240.215 231 240.215 215.069 266.405 215.069C292.595 215.069 292.595 231 318.784 231C344.974 231 344.974 215.069 371.157 215.069C372.493 215.069 373.77 215.129 375 215.242L375 -6.55671e-05L0 0Z" fill="#F7EED9"/>
</svg>
