<svg width="386" height="1152" viewBox="0 0 386 1152" fill="none" xmlns="http://www.w3.org/2000/svg">
<path fill-rule="evenodd" clip-rule="evenodd" d="M494.439 2.80656C627.975 -15.5065 693.612 -227.021 827.234 -209.112C954.867 -192.007 997.148 -26.5932 1069.85 79.9244C1147.87 194.244 1302.24 300.571 1266.31 434.206C1228.91 573.284 996.884 546.108 913.027 663.077C813.153 802.385 917.852 1075.5 759.595 1141C611.949 1202.1 488.409 991.212 364.424 890.114C276.075 818.074 185.008 745.851 144.304 639.284C107.604 543.2 169.009 440.161 153.713 338.448C130.596 184.73 -77.4874 8.72948 33.0969 -100.205C148.183 -213.574 334.473 24.7443 494.439 2.80656Z" fill="#E2C49B"/>
</svg>
