<svg width="105" height="147" viewBox="0 0 105 147" fill="none" xmlns="http://www.w3.org/2000/svg">
<path fill-rule="evenodd" clip-rule="evenodd" d="M-18.5296 -77.7502C7.06087 -73.747 30.8224 -109.055 54.4285 -98.3796C76.9766 -88.1831 75.6247 -55.4015 83.1241 -31.7809C91.1728 -6.4302 113.716 21.6653 99.7215 44.2783C85.1573 67.8123 43.9509 49.9977 22.0566 66.8967C-4.01923 87.0234 0.170197 143.076 -32.5758 146.392C-63.1264 149.485 -74.2203 103.847 -91.4587 78.3917C-103.742 60.2531 -116.517 41.9305 -118.124 20.0676C-119.573 0.355432 -102.581 -15.2195 -99.7795 -34.7858C-95.546 -64.3565 -124.128 -108.242 -97.7578 -122.187C-70.3142 -136.699 -49.1851 -82.5458 -18.5296 -77.7502Z" fill="#E2C49B"/>
</svg>
