<svg width="485" height="617" viewBox="0 0 485 617" fill="none" xmlns="http://www.w3.org/2000/svg">
<path fill-rule="evenodd" clip-rule="evenodd" d="M-154.589 -550.975C-21.4231 -530.143 102.226 -713.876 225.066 -658.325C342.401 -605.265 335.366 -434.678 374.391 -311.762C416.274 -179.844 533.582 -33.6416 460.76 84.0305C384.971 206.496 170.543 113.793 56.611 201.731C-79.0811 306.465 -57.2804 598.148 -227.682 615.404C-386.66 631.502 -444.39 394.01 -534.094 261.548C-598.015 167.159 -664.489 71.8131 -672.853 -41.9559C-680.394 -144.533 -591.971 -225.581 -577.394 -327.399C-555.363 -481.277 -704.096 -709.649 -566.873 -782.211C-424.063 -857.728 -314.113 -575.93 -154.589 -550.975Z" fill="#E2C49B"/>
</svg>
