<svg width="720" height="306" viewBox="0 0 720 306" fill="none" xmlns="http://www.w3.org/2000/svg">
<path d="M720 0L720 305.877C717.294 305.956 714.421 306 711.345 306C661.061 306 661.061 284.897 610.776 284.897C560.492 284.897 560.492 306 510.208 306C459.924 306 459.924 284.897 409.639 284.897C359.355 284.897 359.355 306 309.071 306C258.787 306 258.787 284.897 208.503 284.897C158.218 284.897 158.218 306 107.934 306C57.6501 306 57.6501 284.897 7.3787 284.897C4.81278 284.897 2.36167 284.976 3.33585e-05 285.125L0.00012207 -7.33262e-05L720 0Z" fill="black"/>
</svg>
