<svg width="1440" height="1774" viewBox="0 0 1440 1774" fill="none" xmlns="http://www.w3.org/2000/svg">
<path fill-rule="evenodd" clip-rule="evenodd" d="M-0.000244141 81.9475C35.5303 40.4795 109.189 -1.73762 307.628 14.11C376.878 19.6404 444.811 36.8323 512.632 53.9957C598.195 75.649 683.579 97.257 771.201 95.3467C805.974 94.5886 845.699 91.6663 891.5 85.9982C1007.93 69.0639 1080.4 45.4031 1135.77 27.3278C1238.77 -6.29987 1282.56 -20.5956 1440 63.719V401.905C1530.86 495.806 1533.72 621.995 1536.63 750.378C1537.99 810.526 1539.37 871.156 1549.8 929.174C1564.42 1010.39 1599.69 1094.98 1634.7 1178.94C1710.55 1360.85 1785.19 1539.85 1645.87 1675.34C1505.85 1811.51 1278.37 1777.73 1047.98 1743.52C944.817 1728.2 841.069 1712.8 744.326 1712.53C650.897 1712.26 555.326 1722.13 460.548 1731.92C240.051 1754.7 23.8481 1777.03 -151.111 1670.28C-423.356 1504.17 -576.09 1207.47 -539.559 929.174C-506.364 676.287 -261.072 482.614 -0.000244141 345.904V81.9475Z" fill="#F7EED9"/>
</svg>
