<svg width="50" height="51" viewBox="0 0 50 51" fill="none" xmlns="http://www.w3.org/2000/svg">
<g clip-path="url(#clip0_0_76)">
<path d="M49.6352 24.8537C49.523 24.726 46.836 21.6932 42.4845 18.6337C30.8974 10.4867 19.5678 10.1598 7.5158 18.6337C3.16443 21.6932 0.477417 24.726 0.36521 24.8537C-0.121411 25.4069 -0.121411 26.2354 0.36521 26.7886C0.477417 26.9163 3.16443 29.9491 7.51589 33.0085C19.103 41.1556 30.4326 41.4825 42.4846 33.0085C46.8361 29.9491 49.523 26.9162 49.6353 26.7886C50.1218 26.2354 50.1218 25.4069 49.6352 24.8537ZM35.6395 25.8211C35.6395 31.6563 30.8276 36.3346 25.0003 36.3346C19.1633 36.3346 14.361 31.6465 14.361 25.8211C14.361 19.986 19.1729 15.3077 25.0003 15.3077C30.8372 15.3077 35.6395 19.9958 35.6395 25.8211ZM3.49099 25.8211C6.38279 22.9313 10.0011 20.1819 13.7864 18.2606C10.6753 22.7754 10.615 28.7794 13.7864 33.3817C9.9822 31.4508 6.3655 28.6934 3.49099 25.8211ZM36.2139 33.3817C39.3251 28.8668 39.3853 22.8629 36.2139 18.2606C40.0181 20.1915 43.6348 22.9489 46.5093 25.8211C43.6237 28.7045 40.0068 31.4566 36.2139 33.3817Z" fill="black"/>
<path d="M26.4649 24.3563H27.323L25 26.6793L23.1036 24.7829C22.5322 24.2112 21.6039 24.2108 21.0321 24.7829L18.1275 27.6876C17.5554 28.2596 17.5554 29.1871 18.1275 29.7592C18.6995 30.3313 19.627 30.3311 20.1991 29.7592L22.0679 27.8903L23.9643 29.7866C24.5365 30.3587 25.4638 30.3587 26.0359 29.7866L29.3946 26.4279V26.7977C29.3946 27.6067 30.0504 28.2626 30.8594 28.2626C31.6684 28.2626 32.3243 27.6067 32.3243 26.7977V22.8915C32.3243 22.0825 31.6684 21.4266 30.8594 21.4266H26.4649C25.6559 21.4266 25 22.0825 25 22.8915C25 23.7005 25.6559 24.3563 26.4649 24.3563Z" fill="#DAA520"/>
<path d="M25 9.61023C25.809 9.61023 26.4648 8.95437 26.4648 8.14539V5.2157C26.4648 4.40671 25.809 3.75085 25 3.75085C24.191 3.75085 23.5352 4.40671 23.5352 5.2157V8.14539C23.5352 8.95437 24.191 9.61023 25 9.61023Z" fill="black"/>
<path d="M34.5698 12.1745C35.2674 12.5774 36.1646 12.3422 36.5708 11.6384L38.0357 9.10128C38.4403 8.4007 38.2002 7.5047 37.4995 7.10031C36.7989 6.69562 35.903 6.93566 35.4986 7.63644L34.0337 10.1735C33.6291 10.8741 33.8692 11.77 34.5698 12.1745Z" fill="black"/>
<path d="M25 41.9344C24.191 41.9344 23.5352 42.5903 23.5352 43.3993V46.4266C23.5352 47.2356 24.191 47.8915 25 47.8915C25.809 47.8915 26.4648 47.2356 26.4648 46.4266V43.3993C26.4648 42.5903 25.809 41.9344 25 41.9344Z" fill="black"/>
<path d="M36.522 39.9191C36.1174 39.2184 35.2216 38.9783 34.521 39.383C33.8203 39.7875 33.5803 40.6833 33.9849 41.384L35.4986 44.0058C35.9043 44.7086 36.801 44.9453 37.4995 44.5419C38.2002 44.1374 38.4403 43.2416 38.0357 42.5409L36.522 39.9191Z" fill="black"/>
<path d="M13.4282 11.6383C13.834 12.3412 14.7307 12.5779 15.4292 12.1745C16.1299 11.77 16.3699 10.8741 15.9654 10.1735L14.5005 7.6364C14.0959 6.93562 13.2001 6.69567 12.4995 7.10026C11.7989 7.50476 11.5588 8.40065 11.9634 9.10124L13.4282 11.6383Z" fill="black"/>
<path d="M15.4781 39.383C14.7775 38.9782 13.8815 39.2186 13.4771 39.9192L11.9634 42.5409C11.5588 43.2416 11.7989 44.1375 12.4995 44.5419C13.1974 44.9449 14.0944 44.7092 14.5005 44.0058L16.0142 41.384C16.4188 40.6834 16.1787 39.7875 15.4781 39.383Z" fill="black"/>
</g>
<defs>
<clipPath id="clip0_0_76">
<rect width="50" height="50" fill="white" transform="translate(0 0.821167)"/>
</clipPath>
</defs>
</svg>
