<svg width="1440" height="306" viewBox="0 0 1440 306" fill="none" xmlns="http://www.w3.org/2000/svg">
<path d="M720 0L720 305.877C722.706 305.956 725.579 306 728.655 306C778.939 306 778.939 284.897 829.224 284.897C879.508 284.897 879.508 306 929.792 306C980.076 306 980.076 284.897 1030.36 284.897C1080.64 284.897 1080.64 306 1130.93 306C1181.21 306 1181.21 284.897 1231.5 284.897C1281.78 284.897 1281.78 306 1332.07 306C1382.35 306 1382.35 284.897 1432.62 284.897C1435.19 284.897 1437.64 284.976 1440 285.125L1440 -7.33262e-05L720 0Z" fill="#F7EED9"/>
<path d="M720 0L720 305.877C717.294 305.956 714.421 306 711.345 306C661.061 306 661.061 284.897 610.776 284.897C560.492 284.897 560.492 306 510.208 306C459.924 306 459.924 284.897 409.639 284.897C359.355 284.897 359.355 306 309.071 306C258.787 306 258.787 284.897 208.503 284.897C158.218 284.897 158.218 306 107.934 306C57.65 306 57.6501 284.897 7.3787 284.897C4.81278 284.897 2.36169 284.976 3.33585e-05 285.125L0.00012207 -7.33262e-05L360 0L720 0Z" fill="#F7EED9"/>
</svg>
