<svg width="1440" height="587" viewBox="0 0 1440 587" fill="none" xmlns="http://www.w3.org/2000/svg">
<path fill-rule="evenodd" clip-rule="evenodd" d="M1440 571.558L1440 574.533C1440 574.533 1221.65 586.542 1030.32 586.542C934.654 586.542 827.45 583.54 720.247 580.538C613.044 577.536 505.841 574.533 410.174 574.533C218.836 574.533 -1.19336 586.542 -1.19336 586.542V560.588H0.00012207V26.7623H-0.680725V0.807861C-0.680725 0.807861 94.4188 5.99829 213.943 9.55444H619.842C653.236 8.70288 686.989 7.75757 720.743 6.81226H720.745C827.946 3.81006 935.147 0.807861 1030.81 0.807861C1156.6 0.807861 1294.06 5.99829 1373.48 9.55444H1440V12.7903L1440.48 12.8167V26.7623H1440L1440 560.588L1440 571.558Z" fill="black"/>
</svg>
