<svg width="1440" height="327" viewBox="0 0 1440 327" fill="none" xmlns="http://www.w3.org/2000/svg">
<path d="M720 0L720 326.869C722.706 326.953 725.579 327 728.655 327C778.939 327 778.939 304.448 829.224 304.448C879.508 304.448 879.508 327 929.792 327C980.076 327 980.076 304.448 1030.36 304.448C1080.64 304.448 1080.64 327 1130.93 327C1181.21 327 1181.21 304.448 1231.5 304.448C1281.78 304.448 1281.78 327 1332.07 327C1382.35 327 1382.35 304.448 1432.62 304.448C1435.19 304.448 1437.64 304.533 1440 304.693L1440 -7.8356e-05L720 0Z" fill="#F7EED9"/>
<path d="M720 0L720 326.869C717.294 326.953 714.421 327 711.345 327C661.061 327 661.061 304.448 610.776 304.448C560.492 304.448 560.492 327 510.208 327C459.924 327 459.924 304.448 409.639 304.448C359.355 304.448 359.355 327 309.071 327C258.787 327 258.787 304.448 208.503 304.448C158.218 304.448 158.218 327 107.934 327C57.6501 327 57.6501 304.448 7.3787 304.448C4.81278 304.448 2.36167 304.533 3.33557e-05 304.693L0.00012207 -7.8356e-05L720 0Z" fill="#F7EED9"/>
</svg>
