<svg width="5689" height="241" viewBox="0 0 5689 241" fill="none" xmlns="http://www.w3.org/2000/svg">
<path fill-rule="evenodd" clip-rule="evenodd" d="M720 0.0844727C722.707 0.0302734 725.579 0 728.655 0C753.797 0 766.368 3.62061 778.939 7.24146C791.51 10.8621 804.082 14.4827 829.224 14.4827C854.366 14.4827 866.937 10.8621 879.508 7.24146C892.079 3.62061 904.65 0 929.792 0C954.934 0 967.505 3.62061 980.076 7.24146C992.647 10.8621 1005.22 14.4827 1030.36 14.4827C1055.5 14.4827 1068.07 10.8621 1080.64 7.24146C1093.22 3.62061 1105.79 0 1130.93 0C1156.07 0 1168.64 3.62061 1181.21 7.24146C1193.78 10.8621 1206.36 14.4827 1231.5 14.4827C1256.64 14.4827 1269.21 10.8621 1281.78 7.24146C1294.35 3.62061 1306.92 0 1332.07 0C1357.21 0 1369.78 3.62109 1382.35 7.24219C1394.65 10.7839 1406.94 14.3254 1431 14.4778C1455.06 14.3254 1467.35 10.7839 1479.65 7.24219C1492.22 3.62109 1504.79 0 1529.93 0C1555.08 0 1567.65 3.62061 1580.22 7.24146C1592.79 10.8621 1605.36 14.4827 1630.5 14.4827C1655.65 14.4827 1668.22 10.8621 1680.79 7.24146C1693.36 3.62061 1705.93 0 1731.07 0C1756.21 0 1768.78 3.62061 1781.36 7.24146C1793.93 10.8621 1806.5 14.4827 1831.64 14.4827C1856.78 14.4827 1869.35 10.8621 1881.92 7.24146C1894.49 3.62061 1907.07 0 1932.21 0C1957.35 0 1969.92 3.62061 1982.49 7.24146C1995.06 10.8621 2007.63 14.4827 2032.78 14.4827C2057.92 14.4827 2070.49 10.8621 2083.06 7.24146C2095.63 3.62061 2108.2 0 2133.34 0C2136.42 0 2139.29 0.0302734 2142 0.0844727C2143.3 0.0583496 2144.64 0.0378418 2146.02 0.0234375C2147.51 0.00805664 2149.06 0 2150.66 0C2175.8 0 2188.37 3.62061 2200.94 7.24146C2213.51 10.8621 2226.08 14.4827 2251.22 14.4827C2276.37 14.4827 2288.94 10.8621 2301.51 7.24146C2314.08 3.62061 2326.65 0 2351.79 0C2376.93 0 2389.51 3.62061 2402.08 7.24146C2414.65 10.8621 2427.22 14.4827 2452.36 14.4827C2477.5 14.4827 2490.07 10.8621 2502.64 7.24146C2515.22 3.62061 2527.79 0 2552.93 0C2578.07 0 2590.64 3.62061 2603.21 7.24146C2615.78 10.8621 2628.36 14.4827 2653.5 14.4827C2678.64 14.4827 2691.21 10.8621 2703.78 7.24146C2716.35 3.62061 2728.92 0 2754.07 0C2779.21 0 2791.78 3.62109 2804.35 7.24219C2815.11 10.3408 2825.86 13.4392 2844.5 14.2681C2863.14 13.4392 2873.89 10.3408 2884.65 7.24219C2897.22 3.62109 2909.79 0 2934.93 0C2960.08 0 2972.65 3.62061 2985.22 7.24146C2997.79 10.8621 3010.36 14.4827 3035.5 14.4827C3060.65 14.4827 3073.22 10.8621 3085.79 7.24146C3098.36 3.62061 3110.93 0 3136.07 0C3161.21 0 3173.78 3.62061 3186.36 7.24146C3198.93 10.8621 3211.5 14.4827 3236.64 14.4827C3261.78 14.4827 3274.35 10.8621 3286.92 7.24146C3299.49 3.62061 3312.07 0 3337.21 0C3362.35 0 3374.92 3.62061 3387.49 7.24146C3400.06 10.8621 3412.63 14.4827 3437.78 14.4827C3462.92 14.4827 3475.49 10.8621 3488.06 7.24146C3500.63 3.62061 3513.2 0 3538.34 0C3541.42 0 3544.29 0.0302734 3547 0.0844727C3549.71 0.0302734 3552.58 0 3555.66 0C3580.8 0 3593.37 3.62061 3605.94 7.24146C3618.51 10.8621 3631.08 14.4827 3656.22 14.4827C3681.37 14.4827 3693.94 10.8621 3706.51 7.24146C3719.08 3.62061 3731.65 0 3756.79 0C3781.93 0 3794.51 3.62061 3807.08 7.24146C3819.65 10.8621 3832.22 14.4827 3857.36 14.4827C3882.5 14.4827 3895.07 10.8621 3907.64 7.24146C3920.22 3.62061 3932.79 0 3957.93 0C3983.07 0 3995.64 3.62061 4008.21 7.24146C4020.78 10.8621 4033.36 14.4827 4058.5 14.4827C4083.64 14.4827 4096.21 10.8621 4108.78 7.24146C4121.35 3.62061 4133.92 0 4159.07 0C4184.21 0 4196.78 3.62109 4209.35 7.24219C4221.65 10.7839 4233.94 14.3254 4258 14.4778C4282.06 14.3254 4294.35 10.7839 4306.65 7.24219C4319.22 3.62109 4331.79 0 4356.93 0C4382.08 0 4394.65 3.62061 4407.22 7.24146C4419.79 10.8621 4432.36 14.4827 4457.5 14.4827C4482.64 14.4827 4495.22 10.8621 4507.79 7.24146C4520.36 3.62061 4532.93 0 4558.07 0C4583.21 0 4595.78 3.62061 4608.36 7.24146C4620.93 10.8621 4633.5 14.4827 4658.64 14.4827C4683.78 14.4827 4696.35 10.8621 4708.92 7.24146C4721.5 3.62061 4734.07 0 4759.21 0C4784.35 0 4796.92 3.62061 4809.49 7.24146C4822.06 10.8621 4834.63 14.4827 4859.78 14.4827C4884.92 14.4827 4897.49 10.8621 4910.06 7.24146C4922.63 3.62061 4935.2 0 4960.34 0C4963.42 0 4966.29 0.0302734 4969 0.0844727C4971.71 0.0302734 4974.58 0 4977.66 0C5002.8 0 5015.37 3.62061 5027.94 7.24146C5040.51 10.8621 5053.08 14.4827 5078.22 14.4827C5103.37 14.4827 5115.94 10.8621 5128.51 7.24146C5141.08 3.62061 5153.65 0 5178.79 0C5203.93 0 5216.5 3.62061 5229.08 7.24146C5241.65 10.8621 5254.22 14.4827 5279.36 14.4827C5304.5 14.4827 5317.07 10.8621 5329.64 7.24146C5342.22 3.62061 5354.79 0 5379.93 0C5405.07 0 5417.64 3.62061 5430.21 7.24146C5442.78 10.8621 5455.36 14.4827 5480.5 14.4827C5505.64 14.4827 5518.21 10.8621 5530.78 7.24146C5543.35 3.62061 5555.92 0 5581.07 0C5606.21 0 5618.78 3.62109 5631.35 7.24219C5643.92 10.8625 5656.49 14.4829 5681.62 14.4829C5684.19 14.4829 5686.64 14.4285 5689 14.3259V30.9998V210V226.674C5686.64 226.571 5684.19 226.517 5681.62 226.517C5656.49 226.517 5643.92 230.137 5631.35 233.758C5618.78 237.379 5606.21 241 5581.07 241C5555.92 241 5543.35 237.379 5530.78 233.759C5518.21 230.138 5505.64 226.517 5480.5 226.517C5455.36 226.517 5442.78 230.138 5430.21 233.759C5417.64 237.379 5405.07 241 5379.93 241C5354.79 241 5342.22 237.379 5329.64 233.758C5317.07 230.138 5304.5 226.517 5279.36 226.517C5254.22 226.517 5241.65 230.138 5229.08 233.759C5216.5 237.379 5203.93 241 5178.79 241C5153.65 241 5141.08 237.379 5128.51 233.758C5115.94 230.138 5103.37 226.517 5078.22 226.517C5053.08 226.517 5040.51 230.138 5027.94 233.759C5015.37 237.379 5002.8 241 4977.66 241C4976.04 241 4974.49 240.991 4972.99 240.976C4971.62 240.962 4970.29 240.941 4969 240.915C4966.29 240.97 4963.42 241 4960.34 241C4935.2 241 4922.63 237.379 4910.06 233.758C4897.49 230.138 4884.92 226.517 4859.78 226.517C4834.63 226.517 4822.06 230.138 4809.49 233.758C4796.92 237.379 4784.35 241 4759.21 241C4734.07 241 4721.5 237.379 4708.92 233.758C4696.35 230.138 4683.78 226.517 4658.64 226.517C4633.5 226.517 4620.93 230.138 4608.36 233.758C4595.78 237.379 4583.21 241 4558.07 241C4532.93 241 4520.36 237.379 4507.79 233.758C4495.22 230.138 4482.64 226.517 4457.5 226.517C4432.36 226.517 4419.79 230.138 4407.22 233.758C4394.65 237.379 4382.08 241 4356.93 241C4331.79 241 4319.22 237.379 4306.65 233.758C4294.36 230.217 4282.07 226.676 4258.02 226.522C4233.95 226.672 4221.65 230.215 4209.35 233.758C4196.78 237.379 4184.21 241 4159.07 241C4133.92 241 4121.35 237.379 4108.78 233.759C4096.21 230.138 4083.64 226.517 4058.5 226.517C4033.36 226.517 4020.78 230.138 4008.21 233.759C3995.64 237.379 3983.07 241 3957.93 241C3932.79 241 3920.22 237.379 3907.64 233.758C3895.07 230.138 3882.5 226.517 3857.36 226.517C3832.22 226.517 3819.65 230.138 3807.08 233.759C3794.51 237.379 3781.93 241 3756.79 241C3731.65 241 3719.08 237.379 3706.51 233.758C3693.94 230.138 3681.37 226.517 3656.22 226.517C3631.08 226.517 3618.51 230.138 3605.94 233.759C3593.37 237.379 3580.8 241 3555.66 241C3554.18 241 3552.76 240.993 3551.38 240.98C3549.87 240.965 3548.41 240.944 3547 240.915C3544.29 240.97 3541.42 241 3538.34 241C3513.2 241 3500.63 237.379 3488.06 233.758C3475.49 230.138 3462.92 226.517 3437.78 226.517C3412.63 226.517 3400.06 230.138 3387.49 233.758C3374.92 237.379 3362.35 241 3337.21 241C3312.07 241 3299.49 237.379 3286.92 233.758C3274.35 230.138 3261.78 226.517 3236.64 226.517C3211.5 226.517 3198.93 230.138 3186.36 233.758C3173.78 237.379 3161.21 241 3136.07 241C3110.93 241 3098.36 237.379 3085.79 233.758C3073.22 230.138 3060.65 226.517 3035.5 226.517C3010.36 226.517 2997.79 230.138 2985.22 233.758C2972.65 237.379 2960.08 241 2934.93 241C2909.79 241 2897.22 237.379 2884.65 233.758C2873.89 230.659 2863.14 227.561 2844.5 226.732C2825.87 227.56 2815.11 230.659 2804.35 233.758C2791.78 237.379 2779.21 241 2754.07 241C2728.92 241 2716.35 237.379 2703.78 233.759C2691.21 230.138 2678.64 226.517 2653.5 226.517C2628.36 226.517 2615.78 230.138 2603.21 233.759C2590.64 237.379 2578.07 241 2552.93 241C2527.79 241 2515.22 237.379 2502.64 233.758C2490.07 230.138 2477.5 226.517 2452.36 226.517C2427.22 226.517 2414.65 230.138 2402.08 233.759C2389.51 237.379 2376.93 241 2351.79 241C2326.65 241 2314.08 237.379 2301.51 233.758C2288.94 230.138 2276.37 226.517 2251.22 226.517C2226.08 226.517 2213.51 230.138 2200.94 233.759C2188.37 237.379 2175.8 241 2150.66 241C2148.94 241 2147.28 240.99 2145.68 240.972C2144.87 240.963 2144.07 240.952 2143.29 240.939L2142 240.915C2139.29 240.97 2136.42 241 2133.34 241C2108.2 241 2095.63 237.379 2083.06 233.758C2070.49 230.138 2057.92 226.517 2032.78 226.517C2007.63 226.517 1995.06 230.138 1982.49 233.758C1969.92 237.379 1957.35 241 1932.21 241C1907.07 241 1894.49 237.379 1881.92 233.758C1869.35 230.138 1856.78 226.517 1831.64 226.517C1806.5 226.517 1793.93 230.138 1781.36 233.758C1768.78 237.379 1756.21 241 1731.07 241C1705.93 241 1693.36 237.379 1680.79 233.758C1668.22 230.138 1655.65 226.517 1630.5 226.517C1605.36 226.517 1592.79 230.138 1580.22 233.758C1567.65 237.379 1555.08 241 1529.93 241C1504.79 241 1492.22 237.379 1479.65 233.758C1467.36 230.217 1455.07 226.676 1431.02 226.522C1406.95 226.673 1394.65 230.215 1382.35 233.758C1369.78 237.379 1357.21 241 1332.07 241C1306.92 241 1294.35 237.379 1281.78 233.759C1269.21 230.138 1256.64 226.517 1231.5 226.517C1206.36 226.517 1193.78 230.138 1181.21 233.759C1168.64 237.379 1156.07 241 1130.93 241C1105.79 241 1093.22 237.379 1080.64 233.758C1068.07 230.138 1055.5 226.517 1030.36 226.517C1005.22 226.517 992.647 230.138 980.076 233.759C967.505 237.379 954.934 241 929.792 241C904.65 241 892.079 237.379 879.508 233.758C866.937 230.138 854.366 226.517 829.224 226.517C804.082 226.517 791.511 230.138 778.939 233.759C766.368 237.379 753.797 241 728.655 241C725.579 241 722.707 240.97 720 240.915C717.293 240.97 714.421 241 711.345 241C686.203 241 673.632 237.379 661.061 233.758C648.49 230.138 635.918 226.517 610.776 226.517C585.634 226.517 573.063 230.138 560.492 233.758C547.921 237.379 535.35 241 510.208 241C485.066 241 472.495 237.379 459.924 233.758C447.353 230.138 434.782 226.517 409.64 226.517C384.498 226.517 371.926 230.138 359.355 233.758C346.784 237.379 334.213 241 309.071 241C283.929 241 271.358 237.379 258.787 233.758C246.216 230.138 233.645 226.517 208.503 226.517C183.36 226.517 170.79 230.138 158.218 233.758C145.647 237.379 133.076 241 107.934 241C82.7905 241 70.2197 237.379 57.6494 233.758C45.0806 230.137 32.5127 226.517 7.37842 226.517C4.8125 226.517 2.36182 226.571 0 226.674V210V30.9998V14.3259C2.36182 14.4285 4.81299 14.4829 7.37891 14.4829C32.5127 14.4829 45.0806 10.8625 57.6494 7.24219C70.2197 3.62109 82.7905 0 107.934 0C133.076 0 145.647 3.62061 158.218 7.24146C170.79 10.8621 183.361 14.4827 208.503 14.4827C233.645 14.4827 246.216 10.8621 258.787 7.24146C271.358 3.62061 283.929 0 309.071 0C334.213 0 346.784 3.62061 359.355 7.24146C371.926 10.8621 384.498 14.4827 409.64 14.4827C434.782 14.4827 447.353 10.8621 459.924 7.24146C472.495 3.62061 485.066 0 510.208 0C535.35 0 547.921 3.62061 560.492 7.24146C573.063 10.8621 585.634 14.4827 610.776 14.4827C635.918 14.4827 648.49 10.8621 661.061 7.24146C673.632 3.62061 686.203 0 711.345 0C714.421 0 717.293 0.0302734 720 0.0844727Z" fill="black"/>
</svg>
