<svg width="375" height="207" viewBox="0 0 375 207" fill="none" xmlns="http://www.w3.org/2000/svg">
<path d="M375 135L375 0.0543349C373.59 0.019421 372.094 2.62646e-05 370.492 2.61487e-05C344.302 2.42536e-05 344.302 9.31036 318.113 9.31036C291.923 9.31036 291.923 2.04636e-05 265.733 1.85686e-05C239.544 1.66735e-05 239.544 9.31036 213.354 9.31035C187.164 9.31035 187.164 1.28835e-05 160.975 1.09885e-05C134.785 9.09344e-06 134.785 9.31035 108.595 9.31035C82.4055 9.31034 82.4055 5.30339e-06 56.2158 3.40836e-06C30.0261 1.51334e-06 30.0261 9.31034 3.84305 9.31034C2.50664 9.31034 1.23003 9.27542 -8.99335e-07 9.20947L-1.41859e-05 135L375 135Z" fill="black"/>
<path d="M375 72L375 206.946C373.59 206.981 372.094 207 370.492 207C344.302 207 344.302 197.69 318.113 197.69C291.923 197.69 291.923 207 265.733 207C239.544 207 239.544 197.69 213.354 197.69C187.164 197.69 187.164 207 160.975 207C134.785 207 134.785 197.69 108.595 197.69C82.4055 197.69 82.4055 207 56.2158 207C30.0261 207 30.0261 197.69 3.84306 197.69C2.50665 197.69 1.23004 197.725 1.00976e-05 197.791L-1.41859e-05 72.0001L375 72Z" fill="black"/>
</svg>
