<svg width="1920" height="676" viewBox="0 0 1920 676" fill="none" xmlns="http://www.w3.org/2000/svg">
<path fill-rule="evenodd" clip-rule="evenodd" d="M1920 26.3732V57V619V649.627C1920 649.627 1629.11 676 1374.21 676C1246.76 676 1103.94 669.407 961.124 662.813C818.305 656.22 675.486 649.627 548.035 649.627C293.13 649.627 0 676 0 676V619V57V0C0 0 293.13 26.3732 548.035 26.3732C675.482 26.3732 818.297 19.7803 961.112 13.1873L961.124 13.1865C1103.94 6.59326 1246.76 0 1374.21 0C1629.11 0 1920 26.3732 1920 26.3732Z" fill="black"/>
</svg>
